<svg width="81" height="81" viewBox="0 0 81 81" fill="none" xmlns="http://www.w3.org/2000/svg">
<path d="M80.0004 61.2523V62.8157C79.5088 64.5224 78.5329 65.8201 76.7908 66.4579C77.4256 67.7984 77.529 69.0872 76.9945 70.3894C76.4601 71.6915 75.4591 72.5625 74.1363 73.0793C74.2071 73.2756 74.25 73.3952 74.2942 73.5148C75.2997 76.2032 73.999 78.899 71.2647 79.7981C71.1009 79.8512 70.9444 79.9324 70.7849 80.0004H49.3776C48.4829 79.5442 47.569 79.1145 46.695 78.6229C45.4298 77.9054 44.2088 77.1126 42.9376 76.4084C42.5141 76.1666 42.0387 76.0299 41.5513 76.0098C37.5223 75.9788 33.4933 75.998 29.4643 75.9847C29.2758 75.9679 29.0865 76.007 28.9201 76.097C28.7536 76.1871 28.6174 76.3241 28.5283 76.4911C27.4343 78.1933 25.8339 78.8901 23.8512 78.5742C23.1824 78.4679 22.552 78.1313 21.895 77.8936C20.7877 79.2031 20.6607 79.2902 18.7621 80.0018H17.206C15.5023 79.5087 14.1913 78.5417 13.583 76.8174C11.0584 77.9246 8.30351 77.2499 6.91868 74.1806C6.81817 74.1897 6.71907 74.2105 6.62341 74.2426C3.45069 75.7367 -0.0438744 73.1309 0.000416699 69.604C0.0801406 63.2262 0.0299441 56.8469 0.0166568 50.4676C-0.00342379 49.5021 0.252682 48.5509 0.754841 47.7261C1.7071 46.1729 2.66526 44.6257 3.54961 43.0328C3.83469 42.517 3.99166 41.9403 4.00728 41.3512C4.04714 37.4448 4.01762 33.5399 4.04124 29.635C4.04124 29.0828 3.8936 28.761 3.41673 28.4406C1.91527 27.4278 1.18742 25.9722 1.42068 24.1592C1.5196 23.3856 1.86359 22.6445 2.10277 21.8502C0.626397 20.7843 -0.182653 19.3006 0.0639006 17.3946C0.310454 15.4887 1.46793 14.2633 3.22185 13.534C2.60473 12.2141 2.49696 10.9253 3.02697 9.6202C3.26671 9.02548 3.62639 8.48652 4.08361 8.03694C4.54082 7.58735 5.08576 7.23678 5.68444 7.00708C5.58257 5.92787 5.31534 4.96087 5.44084 4.0544C5.77007 1.62434 7.76169 0.0166015 10.242 0.0121725C16.6716 0.000361744 23.1012 0.0166015 29.5278 0.000361744C30.5183 -0.0113201 31.4915 0.260148 32.3329 0.782823C33.9067 1.74687 35.4894 2.70207 37.0927 3.61445C37.4923 3.84918 37.9436 3.98202 38.4067 4.00125C42.4667 4.03077 46.5267 4.01011 50.5882 4.0293C51.0488 4.0293 51.2673 3.84476 51.5035 3.48453C52.537 1.90632 54.0267 1.1711 55.9002 1.41765C56.6487 1.51361 57.3677 1.84874 58.1265 2.08496C60.2363 -0.913494 64.751 -0.783575 66.5271 3.18778C67.7746 2.58396 69.0635 2.48652 70.3656 3.00472C71.6944 3.53472 72.5462 4.54159 73.0659 5.83486C73.1655 5.82314 73.2642 5.8044 73.3612 5.77876C76.404 4.67741 78.8798 5.9264 79.8734 9.04591C79.9076 9.1124 79.952 9.17316 80.0048 9.22602V30.633C79.5486 31.5291 79.119 32.443 78.6274 33.317C77.9379 34.5364 77.151 35.7042 76.4955 36.9399C76.2029 37.4793 76.0391 38.0791 76.0172 38.6923C75.9758 42.5899 76.0068 46.4874 75.9832 50.3849C75.9832 50.9356 76.1308 51.256 76.6033 51.5764C78.1033 52.5862 78.8341 54.0359 78.6023 55.8474C78.5034 56.621 78.1594 57.3621 77.9143 58.1889C79.0319 58.8429 79.6092 59.9841 80.0004 61.2523ZM50.6399 6.68819H49.7245C46.0026 6.68819 42.2792 6.68819 38.5573 6.68819C37.5381 6.70484 36.5357 6.4281 35.6695 5.89096C34.1665 4.96087 32.6592 4.03077 31.1119 3.1745C30.5763 2.87531 29.9771 2.70829 29.3639 2.6873C25.4338 2.64597 21.5023 2.66516 17.5707 2.66516H10.7779C10.5697 2.66516 10.3616 2.66516 10.1534 2.66516C8.97231 2.71683 8.04958 3.57458 8.01562 4.6346C7.98167 5.75809 8.87339 6.65276 10.1386 6.67638C12.0579 6.71181 13.9905 6.67638 15.9171 6.69557C16.7838 6.70443 17.3537 7.2551 17.3492 8.01394C17.3492 8.73145 16.7926 9.27769 15.9851 9.34265C15.7518 9.36332 15.5171 9.35151 15.2823 9.35151C12.6529 9.35151 10.0235 9.34117 7.39555 9.36627C6.90778 9.36728 6.43622 9.5415 6.06496 9.85786C5.6937 10.1742 5.44687 10.6122 5.36849 11.0936C5.31202 11.5365 5.4084 11.9853 5.64169 12.366C5.87498 12.7467 6.2312 13.0363 6.65146 13.187C7.0002 13.2867 7.36223 13.332 7.72478 13.3214C9.52152 13.3347 11.3183 13.3214 13.1135 13.3332C14.0865 13.3421 14.7006 13.8972 14.6859 14.6959C14.6711 15.4946 14.0953 15.967 13.1445 15.995C12.9364 15.995 12.7282 15.995 12.52 15.995C10.0722 15.995 7.62586 15.9862 5.17804 16.0039C4.73749 15.9955 4.29885 16.064 3.88179 16.2062C3.4816 16.3724 3.14889 16.6683 2.9371 17.0464C2.72531 17.4244 2.64673 17.8627 2.71398 18.2908C2.80616 18.7692 3.06192 19.2008 3.43742 19.5113C3.81291 19.8219 4.28475 19.9922 4.77204 19.993C7.06336 20.0196 9.34878 20.0033 11.6445 20.0048C12.1657 20.0048 12.6869 19.9945 13.2065 20.0048C14.0924 20.0269 14.711 20.5953 14.6829 21.3719C14.6549 22.1484 14.0717 22.6548 13.2065 22.6593C10.8635 22.6711 8.52054 22.6593 6.17754 22.6681C4.93592 22.677 4.07815 23.4698 4.04567 24.5874C4.01319 25.7049 4.83995 26.5494 6.05353 26.6675C6.31339 26.6867 6.57406 26.6926 6.83453 26.6852H19.955C20.423 26.6852 20.8925 26.6675 21.359 26.6956C22.5239 26.7679 23.0495 27.8634 22.3925 28.8274C22.2301 29.0636 22.0396 29.2792 21.8581 29.5006C20.8379 30.7511 19.8074 31.9942 18.7961 33.2505C18.3044 33.8588 18.2336 34.5394 18.6484 35.2111C19.0456 35.8592 19.6819 36.1235 20.3979 35.9138C20.8187 35.7884 21.2188 35.4709 21.5421 35.1565C25.6759 31.0803 29.8098 27.0056 33.9067 22.891C34.9697 21.8222 36.1567 21.2803 37.6626 21.335C38.9308 21.3822 40.2034 21.3453 41.5144 21.3453C41.4657 20.9334 41.4155 20.6071 41.3919 20.2735C41.3397 19.7279 41.3997 19.1774 41.5683 18.6559C41.7369 18.1344 42.0105 17.6529 42.3722 17.2411C43.9239 15.4458 46.5562 15.2214 48.4858 16.7288C49.1842 17.2736 49.8603 17.8449 50.6487 18.4856L50.6399 6.68819ZM38.6488 58.6643C38.603 59.5589 38.6931 60.3872 38.5012 61.1401C37.7261 64.1016 34.1577 65.2384 31.6582 63.3546C30.92 62.7995 30.2202 62.1942 29.42 61.5431V73.3184H30.3176C33.9613 73.3184 37.6065 73.3361 41.2502 73.3081C42.4253 73.2815 43.5818 73.6042 44.5735 74.2352C46.0498 75.1639 47.5424 76.0615 49.0601 76.9148C49.5071 77.1667 50.0089 77.3055 50.5218 77.3193C56.8199 77.3459 63.1196 77.337 69.4193 77.3356C70.9709 77.3356 71.9867 76.5516 72.0118 75.3469C72.0354 74.0891 71.0507 73.3214 69.406 73.3184C67.6107 73.3184 65.814 73.3302 64.0187 73.3051C63.2407 73.2948 62.7136 72.7618 62.6796 72.0562C62.6457 71.3505 63.155 70.7791 63.8991 70.6743C64.1321 70.6512 64.3664 70.6442 64.6004 70.6536C67.1781 70.6536 69.7544 70.6536 72.3321 70.6536C73.7052 70.6536 74.6633 69.821 74.6751 68.6709C74.6884 67.4898 73.7716 66.6941 72.3676 66.6852C70.5708 66.6764 68.7756 66.6852 66.9788 66.6852C65.9454 66.6778 65.3194 66.1316 65.343 65.3078C65.3666 64.5076 65.9572 64.0263 66.967 64.0234C69.5433 64.0145 72.121 64.0234 74.6973 64.0234C75.0353 64.0294 75.3732 64.0057 75.7071 63.9525C76.5309 63.8049 77.0359 63.2867 77.2603 62.4909C77.374 62.1387 77.3692 61.7588 77.2466 61.4095C77.1239 61.0602 76.8902 60.7607 76.5811 60.5569C76.1146 60.24 75.5681 60.0609 75.0044 60.0402C72.3248 59.9885 69.6422 60.0195 66.9611 60.0136C65.9764 60.0136 65.3578 59.5073 65.3371 58.7145C65.315 57.8921 65.9513 57.3577 66.9774 57.3562C69.2687 57.3562 71.5541 57.3666 73.8499 57.3488C75.09 57.34 75.9448 56.5428 75.9743 55.4296C76.0039 54.3164 75.1801 53.4705 73.968 53.3627C73.7096 53.3391 73.4468 53.348 73.187 53.348H59.3652C59.1305 53.348 58.8603 53.4203 58.6698 53.3273C58.2535 53.125 57.7028 52.9213 57.533 52.564C57.3632 52.2067 57.5434 51.6457 57.6674 51.2028C57.7397 50.9489 58.0055 50.7496 58.1871 50.5281C59.2072 49.2777 60.2377 48.0361 61.2476 46.7768C61.7348 46.1685 61.8012 45.485 61.3849 44.8162C60.9818 44.1695 60.3396 43.9186 59.628 44.1223C59.215 44.2687 58.8434 44.5122 58.5443 44.8324C54.4474 48.8702 50.3402 52.9006 46.2905 56.9901C45.1094 58.1859 43.8072 58.7942 42.1256 58.7026C40.9431 58.6111 39.7502 58.6643 38.6488 58.6643ZM58.6684 41.4678C59.4715 41.4678 60.1595 41.366 60.8061 41.4841C63.9862 42.0746 65.3652 45.6547 63.4341 48.2664C62.8583 49.0459 62.2235 49.7826 61.5738 50.5916H73.3228V49.5936C73.3228 45.9485 73.3346 42.3049 73.3154 38.6598C73.2924 37.5642 73.5923 36.486 74.1776 35.5595C75.1033 34.0832 76.0083 32.5921 76.8513 31.07C77.1397 30.5566 77.3002 29.9813 77.3193 29.3928C77.3518 23.1464 77.34 16.8986 77.3385 10.6522C77.3462 10.4178 77.3412 10.1832 77.3238 9.94943C77.2145 8.86874 76.3287 8.01099 75.3248 8.00656C74.2913 8.00656 73.4557 8.80231 73.3405 9.93319C73.3125 10.2166 73.3243 10.506 73.3228 10.7909C73.3228 12.536 73.3361 14.2795 73.3065 16.0231C73.3107 16.1933 73.2809 16.3626 73.2189 16.5212C73.1569 16.6798 73.064 16.8244 72.9455 16.9467C72.8271 17.069 72.6855 17.1665 72.529 17.2335C72.3725 17.3005 72.2042 17.3357 72.0339 17.337C71.705 17.3408 71.3862 17.2237 71.138 17.0078C70.8897 16.792 70.7294 16.4925 70.6875 16.1663C70.6569 15.9082 70.647 15.648 70.6579 15.3883C70.6579 12.7855 70.6653 10.1827 70.6579 7.5799C70.6491 6.27777 69.7825 5.33586 68.653 5.34176C67.4956 5.34176 66.7042 6.24233 66.6954 7.59319C66.6821 9.28507 66.6954 10.977 66.6954 12.6703C66.6954 13.999 66.2598 14.659 65.3666 14.6737C64.4734 14.6885 64.0246 14.0404 64.0246 12.7058C64.0246 10.2063 64.0246 7.70834 64.0158 5.20889C64.0265 4.76835 63.9651 4.32901 63.8342 3.90824C63.5478 3.08739 62.5911 2.56181 61.7673 2.69321C61.274 2.77722 60.8268 3.03454 60.5064 3.41886C60.1859 3.80318 60.0132 4.28926 60.0192 4.78961C59.9971 7.41898 60.0104 10.0483 60.0089 12.6762C60.0089 14.0049 59.566 14.6663 58.6875 14.6752C57.8091 14.6841 57.3455 14.0256 57.3455 12.6969C57.3455 10.4824 57.3618 8.26787 57.3352 6.05336C57.3219 4.90624 56.5291 4.08245 55.4764 4.02782C54.4238 3.9732 53.5483 4.72465 53.3741 5.82896C53.3334 6.16442 53.3186 6.50252 53.3298 6.84025C53.3298 11.6039 53.3298 16.3676 53.3298 21.1312C53.3298 21.7543 53.1497 22.2547 52.5503 22.5338C51.9804 22.798 51.4903 22.6356 51.037 22.2562C50.8377 22.0894 50.6325 21.9285 50.4317 21.7631C49.224 20.7754 48.0237 19.776 46.8043 18.8016C46.1606 18.2863 45.3737 18.2406 44.7713 18.6539C44.1365 19.0806 43.8855 19.7095 44.101 20.4255C44.2221 20.8212 44.5307 21.1918 44.8318 21.4974C48.9243 25.6503 53.0139 29.8047 57.1433 33.9208C58.2122 34.9867 58.7304 36.1855 58.6757 37.6869C58.6314 38.9433 58.6684 40.2174 58.6684 41.4678ZM6.70018 29.3899V30.413C6.70018 34.0847 6.69132 37.7563 6.70018 41.428C6.71912 42.4734 6.43394 43.5017 5.87932 44.388C4.96987 45.8437 4.06338 47.3038 3.23957 48.8097C2.91275 49.389 2.72854 50.0378 2.70217 50.7024C2.66231 56.903 2.67855 63.0962 2.67855 69.2939C2.66865 69.5801 2.67654 69.8665 2.70217 70.1517C2.76314 70.6204 2.97753 71.0558 3.3119 71.3899C3.64627 71.724 4.08181 71.938 4.55059 71.9986C4.98274 72.0254 5.4118 71.9101 5.77223 71.6702C6.13266 71.4302 6.40464 71.0789 6.54664 70.6699C6.6499 70.2939 6.6996 69.9052 6.69427 69.5154C6.70904 67.7187 6.69427 65.922 6.70756 64.1253C6.71642 63.2394 7.24348 62.6814 8.00529 62.6711C8.76709 62.6607 9.30449 63.235 9.36207 64.0913C9.37683 64.298 9.36207 64.5076 9.36207 64.7158C9.36207 67.1901 9.36207 69.663 9.36207 72.1374C9.34693 72.5005 9.38069 72.8639 9.46246 73.218C9.72378 74.1216 10.679 74.7579 11.5441 74.659C12.0301 74.6136 12.4814 74.3879 12.8093 74.0264C13.1372 73.6649 13.3179 73.1938 13.3158 72.7057C13.3497 71.0139 13.3291 69.3205 13.332 67.6286C13.332 67.3673 13.332 67.1075 13.332 66.8476C13.3719 65.9264 13.9049 65.3329 14.6785 65.3359C15.4521 65.3388 15.988 65.9264 15.9924 66.858C16.0057 69.5921 15.9924 72.3204 16.0043 75.0605C16.0131 76.4173 16.8192 77.3208 17.9619 77.3311C19.1046 77.3415 19.9964 76.3626 20.0037 75.0325C20.0155 73.0025 20.0037 70.971 20.0037 68.9396C20.0037 68.2634 20.0037 67.5858 20.0037 66.9082C20.0155 65.9471 20.5574 65.3211 21.3546 65.3344C22.1282 65.3491 22.6479 65.9515 22.6597 66.8727C22.6701 67.602 22.6597 68.3313 22.6597 69.0592C22.6597 70.7009 22.6391 72.3411 22.6701 73.9813C22.6922 75.0871 23.4717 75.9006 24.4845 75.9714C25.4973 76.0423 26.392 75.3543 26.5987 74.2899C26.6581 73.9309 26.6828 73.567 26.6725 73.2033C26.6784 68.5695 26.6784 63.9348 26.6725 59.2991C26.6636 59.0386 26.6695 58.7779 26.6902 58.5181C26.708 58.2964 26.7828 58.083 26.9072 57.8986C27.0315 57.7142 27.2014 57.565 27.4003 57.4654C27.5992 57.3658 27.8204 57.3192 28.0425 57.3301C28.2647 57.341 28.4803 57.409 28.6685 57.5275C28.9083 57.6831 29.1359 57.8568 29.3491 58.0472C30.6602 59.1175 31.9623 60.1982 33.2822 61.2567C33.8993 61.7513 34.5873 61.7764 35.2428 61.3512C35.5399 61.1772 35.7674 60.9054 35.8864 60.5823C36.0054 60.2592 36.0086 59.9048 35.8954 59.5796C35.7743 59.1825 35.4628 58.8134 35.1572 58.5078C31.5017 54.7992 27.8373 51.0995 24.1641 47.4086C21.1907 44.4249 21.3074 44.7379 21.3266 40.5171C21.3266 39.8572 21.3266 39.1972 21.3266 38.6554C20.3846 38.6023 19.5549 38.6864 18.8005 38.4901C15.861 37.7268 14.6918 34.2692 16.5077 31.8111C17.0982 31.0094 17.7508 30.2506 18.4417 29.3914L6.70018 29.3899ZM24.0254 39.8719C24.0254 40.7828 23.9589 41.6996 24.0519 42.6017C24.1036 43.1021 24.3 43.6942 24.6425 44.0411C28.4249 47.914 32.235 51.7594 36.0725 55.5772C36.33 55.8152 36.6628 55.9552 37.013 55.9729C38.8865 56.0098 40.7615 56.0275 42.6335 55.9655C43.1414 55.9435 43.6267 55.7493 44.0095 55.4148C47.8982 51.6118 51.7614 47.7826 55.599 43.9274C55.8327 43.6661 55.968 43.3314 55.9814 42.9811C56.0168 41.1342 56.0419 39.2902 55.9696 37.4389C55.9403 36.883 55.7238 36.3533 55.3554 35.936C51.5936 32.0788 47.8043 28.2506 43.9873 24.4515C43.7096 24.1992 43.3524 24.0519 42.9775 24.0352C41.1837 23.9939 39.387 24.0352 37.5917 24.0042C36.8535 23.9894 36.3176 24.2389 35.8024 24.7557C32.139 28.417 28.4599 32.0621 24.765 35.6909C24.2129 36.2327 23.9663 36.7701 24.0268 37.529C24.0874 38.2878 24.0268 39.0924 24.0268 39.8734L24.0254 39.8719Z" fill="#00B5B3"/>
</svg>
