<svg width="80" height="80" viewBox="0 0 80 80" fill="none" xmlns="http://www.w3.org/2000/svg">
<path d="M0 3.22168C0.188546 2.75215 0.397662 2.29641 0.626364 1.85658C1.90206 -0.282514 3.81247 -0.589993 5.73958 1.02162C8.01954 -0.319624 8.89436 -0.309021 10.4394 1.00836C11.1681 0.671729 11.8216 0.194607 12.5147 0.0779774C14.6903 -0.285165 16.4942 1.82477 16.4942 4.61858C16.4942 9.15654 16.4608 13.6971 16.4817 18.2351C16.541 21.8428 15.621 25.3665 13.876 28.2149C12.521 30.4415 12.0137 32.9278 12.1201 35.7375C12.3853 42.6505 12.5607 49.5714 12.7799 56.4897C12.805 57.3114 12.7027 58.1198 12.0095 58.3186C11.5672 58.3948 11.1188 58.2525 10.7568 57.921C10.5292 57.7143 10.4561 57.1046 10.4394 56.6672C10.2765 52.1611 10.1408 47.6549 9.99468 43.1647C9.99468 42.8731 9.97171 42.5789 9.95709 42.2131H6.45572C6.40561 43.2257 6.34089 44.27 6.30331 45.3144C5.96089 54.5441 5.62335 63.7755 5.29068 73.0087C5.21135 75.2458 6.4244 76.9688 8.04042 76.9847C9.72116 77.0059 10.9635 75.3439 10.9259 73.0458C10.8737 70.3951 10.7609 67.7444 10.6774 65.0938C10.6376 64.633 10.6376 64.1682 10.6774 63.7074C10.708 63.3548 10.8438 63.0305 11.0571 62.8012C11.2703 62.5719 11.5447 62.4551 11.8237 62.4749C12.45 62.4749 12.9198 62.9308 12.9511 63.7154C13.0826 67.1242 13.3186 70.5409 13.21 73.939C13.0931 77.65 10.5062 80.2105 7.57274 79.9455C4.99421 79.7255 2.8249 76.6056 2.94391 73.1306C3.27588 63.567 3.64752 54.0086 4.00455 44.445C4.12147 41.3039 4.24675 38.1602 4.3574 35.0165C4.43048 33.0153 4.16114 31.0405 3.24039 29.4342C1.62855 26.6059 0.363291 23.6292 0 20.1197V3.22168ZM9.81303 39.1092C9.81303 38.0489 9.8694 37.0841 9.81303 36.1351C9.53183 32.5699 10.3615 29.0065 12.1243 26.2083C13.427 24.107 14.1319 21.5082 14.1245 18.8342C14.1412 14.1001 14.1482 9.36418 14.1454 4.62654C14.1444 4.3021 14.0721 3.98445 13.9366 3.7094C13.8061 3.4158 13.5969 3.19144 13.347 3.07712C13.0972 2.9628 12.8234 2.96613 12.5753 3.08649C11.974 3.35156 11.7172 3.98242 11.7193 4.79883C11.7193 9.20425 11.7193 13.6097 11.7193 18.0151C11.7193 18.9084 11.7422 19.8043 11.7193 20.6976C11.7221 20.8971 11.6925 21.0952 11.6322 21.2795C11.572 21.4638 11.4824 21.6304 11.3691 21.7687C11.2558 21.9071 11.1213 22.0142 10.9739 22.0835C10.8265 22.1528 10.6694 22.1827 10.5125 22.1714C9.88611 22.1475 9.43512 21.575 9.39128 20.6923C9.3704 20.2629 9.39128 19.8308 9.39128 19.4014C9.39128 14.533 9.39128 9.6637 9.39128 4.79353C9.39128 3.5159 8.7336 2.75516 7.87339 3.05204C7.14263 3.3171 6.98187 4.03013 6.98395 4.90751C6.9937 9.90845 6.9937 14.9103 6.98395 19.913C6.98395 21.4689 6.63319 22.1528 5.83562 22.1767C5.00047 22.2005 4.64135 21.5166 4.64135 19.8838C4.64135 14.9165 4.64135 9.94821 4.64135 4.97908C4.64135 3.68025 4.2551 3.03348 3.49928 3.01758C2.69128 3.00167 2.36348 3.54771 2.36348 4.90486C2.36348 9.34474 2.38436 13.782 2.36348 18.2219C2.34886 21.2065 2.98984 23.9102 4.42839 26.2746C6.25528 29.2805 6.95681 32.6654 6.67077 36.4293C6.60605 37.2988 6.67077 38.1867 6.67077 39.1118L9.81303 39.1092Z" fill="#00B5B3"/>
<path d="M14.6653 41.402C14.6984 33.4448 16.9845 25.768 21.1063 19.7732C25.228 13.7783 30.9104 9.86528 37.1162 8.74834C41.1288 8.03333 45.2176 8.53009 49.0506 10.1983C49.2747 10.2846 49.4938 10.3909 49.7062 10.5163C50.3325 10.9033 50.5705 11.6429 50.3325 12.4063C50.0945 13.1697 49.5266 13.4878 48.871 13.273C47.2863 12.7615 45.7204 12.0882 44.1106 11.7728C39.284 10.8466 34.35 11.8556 29.9966 14.659C25.6431 17.4624 22.0871 21.9205 19.8244 27.4118C12.5273 45.2031 20.5865 66.7239 36.0556 70.745C49.1737 74.1564 62.2313 62.4749 63.9225 45.6086C65.1481 33.3731 61.6112 23.6504 53.7504 16.4512C52.9612 15.7302 52.7294 14.9138 53.1407 14.1292C53.552 13.3446 54.2682 13.2651 55.0574 13.9781C63.1291 21.2701 67.1086 31.2075 66.4196 43.785C65.5678 59.2914 56.5523 71.4925 44.4969 73.9338C30.8004 76.7117 17.3921 64.4125 15.1601 47.0214C14.9221 45.1633 14.824 43.276 14.6653 41.402Z" fill="#00B5B3"/>
<path d="M76.8193 48.5959H73.629C73.4683 51.4587 73.3075 54.2869 73.1488 57.1179C73.0528 58.8355 72.9651 60.5637 72.8565 62.2708C72.7876 63.3894 72.3429 63.946 71.6038 63.893C70.8647 63.84 70.4575 63.1349 70.5223 61.9766C70.7707 57.4174 71.038 52.8582 71.2551 48.2964C71.2818 47.5425 71.2026 46.7886 71.0213 46.0699C69.49 39.8721 68.655 33.4311 68.5409 26.9373C68.4219 20.1542 69.7811 13.835 71.9608 7.74639C72.4576 6.364 73.0708 5.054 73.7898 3.83929C74.3208 2.94191 74.9846 2.1847 75.744 1.61007C77.8319 0.0594263 80.0492 1.76646 79.9991 4.8545C79.8968 10.8821 79.7486 16.9098 79.6191 22.9374C79.4479 30.9186 79.1744 38.8998 79.1389 46.8836C79.116 51.9199 79.45 56.9429 79.6212 61.9739C79.7507 65.8121 79.9282 69.6609 79.9929 73.4911C80.0104 75.0149 79.5997 76.4967 78.8345 77.6709C78.0692 78.845 76.9995 79.6345 75.8171 79.8978C73.5205 80.4491 71.1048 78.7235 70.2425 75.8475C69.5514 73.5441 70.0337 71.1903 70.2425 68.8789C70.3135 68.1288 70.9336 67.8186 71.5495 68.0015C72.2155 68.1818 72.4911 68.7967 72.464 69.6105C72.4264 70.7688 72.3512 71.9245 72.2698 73.0802C72.1278 75.1319 73.2511 76.8972 74.7753 76.9926C75.1568 77.0307 75.5404 76.9649 75.9003 76.7995C76.2602 76.6341 76.5882 76.373 76.8622 76.0337C77.1361 75.6944 77.3499 75.2847 77.489 74.832C77.6282 74.3793 77.6896 73.8941 77.6691 73.4089C77.5271 68.1447 77.3246 62.8831 77.1471 57.6215L76.8965 50.2738C76.8673 49.749 76.8444 49.2242 76.8193 48.5959ZM76.7817 45.5689C76.8089 44.8558 76.8444 44.2435 76.859 43.6074C77.0093 36.4558 77.1589 29.3034 77.3079 22.1502C77.4248 16.5546 77.5501 10.959 77.6503 5.36078C77.6503 4.92872 77.4999 4.49136 77.4206 4.05664C77.074 4.23954 76.6189 4.30581 76.4017 4.62919C75.7315 5.6285 75.0258 6.64635 74.5581 7.81C72.9836 11.7002 71.8752 15.8671 71.2697 20.1728C70.706 24.117 70.8375 28.0903 71.1215 32.0557C71.449 36.4392 72.1576 40.7631 73.2344 44.9486C73.297 45.1978 73.5372 45.5397 73.7021 45.5503C74.7105 45.5927 75.7211 45.5689 76.7817 45.5689Z" fill="#00B5B3"/>
<path d="M40.8431 66.9598C31.2389 67.0102 22.9103 58.4617 20.9748 46.7802C20.9171 46.4912 20.8767 46.197 20.8537 45.9002C20.8224 45.0652 21.1189 44.4768 21.7703 44.2939C22.4217 44.111 22.9061 44.4927 23.1087 45.2852C23.3112 46.0778 23.4156 46.9605 23.6056 47.7848C25.9022 57.7408 33.4562 64.5636 41.4966 63.9327C49.9567 63.2701 56.7945 55.5778 58.16 45.1898C59.8177 32.5832 53.0238 20.6843 43.1836 18.9481C33.2244 17.1987 24.2967 25.8955 22.9938 38.6135C22.8685 39.8275 22.3675 40.469 21.6388 40.3391C20.9101 40.2092 20.5447 39.4193 20.67 38.2185C21.881 26.6006 28.8378 17.6201 37.8971 15.9847C49.1591 13.949 59.682 24.5623 60.6696 38.966C61.63 52.9536 53.8673 65.1308 42.9226 66.7981C42.1752 66.9068 41.4068 66.9148 40.8431 66.9598Z" fill="#00B5B3"/>
</svg>
