<svg width="80" height="80" viewBox="0 0 80 80" fill="none" xmlns="http://www.w3.org/2000/svg">
<path d="M80 15.5726V71.3481C79.1342 73.8906 77.3088 74.6327 74.7789 74.6025C66.9699 74.5087 59.1593 74.5755 51.3487 74.5564C50.7742 74.5564 50.4877 74.6788 50.3061 75.2889C48.8971 80.0084 42.8838 81.607 39.463 78.1143C38.5425 77.1736 37.9632 75.8896 37.2274 74.7598L37.4168 74.5691H36.4932C28.5015 74.5691 20.5093 74.5691 12.5166 74.5691C9.58121 74.5691 7.9953 72.9403 7.99374 69.9418C7.99374 66.6588 7.96399 63.3759 8.01252 60.0897C8.02505 59.3143 7.79022 58.9647 7.09824 58.6246C3.65401 56.9355 1.76282 54.1117 1.41057 50.2392C1.34325 49.5035 1.34638 48.7583 1.34481 48.0146C1.34481 38.4803 1.34064 28.9492 1.33229 19.4213C1.33229 19.0828 1.2775 18.6268 1.06301 18.4282C0.26771 17.721 0 16.8566 0 15.8205C0.01409 11.6096 0 7.39859 0 3.1908C0.00782779 1.02493 1.02544 0 3.17808 0H19.3456C21.7205 0 22.6661 0.953427 22.6677 3.35288V6.79158H59.9483C63.3847 6.79158 66.8211 6.78363 70.2575 6.79158C73.0552 6.8027 74.6646 8.44418 74.6771 11.2822C74.6771 11.5667 74.6771 11.8511 74.6771 12.1721C75.4474 12.2182 76.1597 12.1721 76.8329 12.3183C78.5706 12.6901 79.5131 13.92 80 15.5726ZM22.6677 9.55175C22.6677 11.7272 22.6583 13.8422 22.6677 15.954C22.6677 16.7851 22.5237 17.586 21.8849 18.1183C21.3902 18.5362 21.3245 18.9875 21.326 19.5659C21.3354 29.364 21.338 39.1631 21.3339 48.9632C21.3339 52.9454 19.7886 56.0695 16.4415 58.2306C16.202 58.3895 16.0125 58.8121 16.0063 59.1172C15.9656 60.9176 15.9828 62.718 15.9875 64.52C15.9875 66.0248 16.407 66.4364 17.9068 66.4364H38.0712C40.8892 66.4364 42.256 65.2303 42.6724 62.3764C42.7898 61.5723 43.2986 61.0511 43.9765 61.0336C44.6826 61.0161 45.218 61.5564 45.3292 62.3954C45.6924 65.1524 47.1342 66.4348 49.8818 66.4364H70.1135C71.5945 66.4364 72.0188 66.0073 72.0188 64.5025C72.0188 46.8111 72.0188 29.1198 72.0188 11.4284C72.0188 9.92835 71.5976 9.50567 70.1072 9.50567C62.1406 9.50567 54.173 9.50567 46.2043 9.50567H45.3292V56.1711C45.3426 56.4892 45.3332 56.8079 45.301 57.1246C45.1992 57.8158 44.7624 58.229 44.1002 58.2798C43.797 58.3217 43.4894 58.2443 43.2406 58.0635C42.9917 57.8827 42.8204 57.6122 42.7616 57.3073C42.6856 56.9462 42.6551 56.5767 42.6708 56.2077C42.6708 40.9815 42.6708 25.7552 42.6708 10.529V9.55175H22.6677ZM4.01566 19.0256V20.0029C4.01566 29.6113 4.01566 39.2197 4.01566 48.8282C4.01566 49.3573 4.03914 49.8881 4.08767 50.4172C4.53386 55.3433 10.2215 58.488 14.5268 56.187C17.3699 54.6695 18.6661 52.2335 18.6661 49.0157C18.6661 39.3024 18.6661 29.5885 18.6661 19.8742C18.6661 19.5961 18.6333 19.3196 18.6145 19.0288L4.01566 19.0256ZM10.6568 59.6845V69.7861C10.6568 71.4673 11.0294 71.8518 12.6638 71.8518H37.8943C39.5429 71.8518 39.809 72.0854 40.047 73.7444C40.3507 75.8435 42.0524 77.3182 44.1096 77.2641C45.0691 77.2424 45.9884 76.8685 46.6974 76.2118C47.4063 75.555 47.8568 74.6599 47.9656 73.692C48.1221 72.1824 48.4853 71.8518 50.0117 71.8518H72.6654C73.7613 71.8518 74.8571 71.8677 75.953 71.8407C76.7765 71.8201 77.2509 71.3481 77.3401 70.525C77.3568 70.2876 77.361 70.0494 77.3526 69.8115C77.3526 52.2017 77.3526 34.5924 77.3526 16.9837C77.3679 16.693 77.3564 16.4015 77.3182 16.1129C77.182 15.4137 76.7562 14.9831 76.0344 14.937C75.6023 14.91 75.1687 14.937 74.6834 14.937V16.0494C74.6834 32.1517 74.6834 48.254 74.6834 64.3563C74.6934 64.7811 74.6724 65.206 74.6207 65.6276C74.3155 67.6933 72.7703 69.133 70.7209 69.1393C63.5089 69.1637 56.2964 69.1637 49.0834 69.1393C47.4301 69.1393 45.9977 68.4656 44.8016 67.304C44.5276 67.0386 44.2865 66.7351 44.0297 66.4491C42.0462 68.607 40.7796 69.16 37.9068 69.16H31.4207C26.8639 69.16 22.3071 69.16 17.7503 69.16C14.962 69.16 13.3511 67.5153 13.3292 64.671C13.3292 63.5062 13.3292 62.3398 13.3292 61.1751V59.5288L10.6568 59.6845ZM2.66145 16.1987H19.9562V2.76494H2.66145V16.1987Z" fill="#00B5B3"/>
<path d="M55.9531 28.463V25.7536C54.8055 25.7536 53.6689 25.7219 52.5339 25.7664C52.1836 25.7906 51.8326 25.7313 51.5088 25.5934C51.1851 25.4554 50.8976 25.2426 50.6693 24.9718C50.0165 24.2536 49.2603 23.6259 48.6544 22.8711C48.3001 22.4327 48.0821 21.8973 48.0282 21.3329C47.9468 19.7736 47.9468 18.2109 48.0282 16.6516C48.075 16.0855 48.2895 15.5471 48.6435 15.107C49.3287 14.2785 50.0824 13.5108 50.8963 12.8125C51.2859 12.482 51.7677 12.2836 52.274 12.2452C53.8583 12.1753 55.4505 12.1705 57.0349 12.2452C57.5645 12.2917 58.0676 12.5013 58.4767 12.8458C59.2595 13.5037 59.9139 14.3014 60.6544 15.0085C60.8863 15.2209 61.0688 15.4829 61.1887 15.7755C61.3086 16.0682 61.363 16.3842 61.348 16.7009C61.3323 17.8863 61.348 19.0701 61.348 20.3398C62.5926 20.3398 63.7574 20.362 64.9221 20.3398C65.2339 20.3233 65.5453 20.3782 65.8333 20.5003C66.1214 20.6224 66.3787 20.8087 66.5863 21.0453C67.2673 21.7731 68.0376 22.4246 68.6576 23.2016C69.0256 23.6542 69.2557 24.2059 69.3198 24.7891C69.4051 26.3483 69.4051 27.9112 69.3198 29.4704C69.2916 29.9996 68.9221 30.5097 68.7077 31.0261C68.6983 31.0483 68.6701 31.0626 68.6544 31.0833C67.0482 33.3699 64.93 34.4139 62.1527 33.8911C61.4936 33.7672 61.2446 34.0771 61.3417 34.7254C61.3456 34.7783 61.3456 34.8314 61.3417 34.8843C61.3417 38.8347 61.3417 38.8458 58.3922 41.49C58.0164 41.8034 57.5519 41.9871 57.0662 42.0143C55.4818 42.0779 53.8897 42.0938 52.3053 42.0143C51.7887 41.9873 51.2094 41.6965 50.8024 41.3517C50.0349 40.7157 49.334 40.0011 48.7108 39.2192C48.3259 38.7412 48.0866 38.1598 48.0219 37.5459C47.9301 36.0113 47.9301 34.4724 48.0219 32.9377C48.0819 32.3482 48.3123 31.7898 48.6842 31.3328C49.3246 30.5318 50.0444 29.7996 50.8321 29.1478C51.2888 28.7809 51.8388 28.5533 52.418 28.4916C53.5765 28.3946 54.746 28.463 55.9531 28.463ZM62.7335 31.1755C63.2799 31.1755 63.8294 31.2025 64.3726 31.1628C64.6212 31.1401 64.8584 31.0464 65.0568 30.8926C66.2122 29.9757 67.0341 28.8952 66.6912 27.268C66.6447 27.0053 66.6447 26.7362 66.6912 26.4735C66.8478 25.4136 66.4658 24.6493 65.6908 23.9119C65.0349 23.2874 64.4165 22.9283 63.5116 23.0316C62.9157 23.0944 62.3149 23.0944 61.719 23.0316C60.9049 22.9506 60.3429 23.2588 59.7401 23.8261C58.9292 24.5905 58.5143 25.3818 58.6552 26.5164C58.7413 27.2203 58.6239 27.9465 58.6897 28.6568C58.7469 29.03 58.8907 29.384 59.1092 29.6897C59.939 30.9482 61.1116 31.4377 62.5801 31.1739C62.6312 31.1713 62.6824 31.1718 62.7335 31.1755ZM50.6583 35.2164C50.6583 35.798 50.6317 36.3812 50.6693 36.9644C50.6891 37.2182 50.7804 37.4609 50.9323 37.6635C51.8372 38.8283 52.8893 39.6832 54.4955 39.332C54.8063 39.2774 55.1241 39.2774 55.4349 39.332C56.3914 39.4687 57.074 39.1064 57.7566 38.4024C58.4392 37.6985 58.793 37.0263 58.6881 36.0427C58.627 35.3306 58.627 34.6144 58.6881 33.9023C58.7257 33.3191 58.4611 32.9488 58.1292 32.5103C57.2822 31.3852 56.2317 30.9895 54.8807 31.1691C54.267 31.2517 53.6282 31.1691 53.0098 31.1929C52.7846 31.1964 52.566 31.2702 52.3836 31.4043C51.3018 32.3386 50.2795 33.3111 50.6693 34.9844C50.6731 35.0619 50.6694 35.1396 50.6583 35.2164ZM54.638 23.0411C56.2035 23.4305 57.3715 22.8155 58.2529 21.5427C58.4717 21.2364 58.6086 20.8778 58.6505 20.5019C58.71 19.6851 58.6176 18.8572 58.6834 18.0436C58.7538 17.1807 58.4439 16.5896 57.8677 15.9588C57.1319 15.1531 56.3617 14.7718 55.2877 14.9068C54.6659 14.9744 54.0387 14.9744 53.4169 14.9068C52.7906 14.8496 52.3883 15.1404 51.9171 15.5281C50.8932 16.3687 50.4689 17.3651 50.6443 18.6887C50.7272 19.3132 50.6443 19.96 50.6693 20.5956C50.6659 20.851 50.7403 21.1013 50.8822 21.3123C51.8028 22.4039 52.7499 23.4781 54.4047 23.0443C54.4821 23.0337 54.5604 23.0326 54.638 23.0411Z" fill="#00B5B3"/>
<path d="M55.319 48.8012C53.3668 48.8012 51.4051 48.8441 49.4638 48.7662C49.2168 48.7396 48.9779 48.6612 48.7623 48.5359C48.5467 48.4106 48.3591 48.2412 48.2114 48.0384C48.0157 47.7349 48.0767 47.0659 48.2912 46.7418C48.4323 46.5621 48.6087 46.4143 48.8093 46.3078C49.0099 46.2014 49.2301 46.1387 49.456 46.1236C53.3605 46.0791 57.2666 46.0855 61.1711 46.103C62.0838 46.103 62.674 46.7132 62.649 47.4997C62.6239 48.2863 62.0462 48.7932 61.0912 48.798C59.1781 48.8107 57.2447 48.8012 55.319 48.8012Z" fill="#00B5B3"/>
<path d="M55.3409 59.6543C53.3887 59.6543 51.4364 59.6845 49.4857 59.6448C48.2677 59.6194 47.5836 58.4784 48.2787 57.6092C48.5699 57.2437 49.1883 57.0086 49.6767 56.9736C50.8681 56.883 52.0689 56.9434 53.2665 56.9434H60.6074C60.8157 56.9434 61.0239 56.9339 61.2337 56.953C62.1198 57.0324 62.6677 57.5663 62.6583 58.3259C62.6489 59.0854 62.1072 59.6305 61.2008 59.648C59.4787 59.6782 57.7644 59.6591 56.047 59.6623H55.344L55.3409 59.6543Z" fill="#00B5B3"/>
<path d="M62.0368 54.2277C60.2145 54.2277 58.3921 54.2277 56.5698 54.2277C56.2838 54.2426 55.997 54.2245 55.715 54.1737C55.4283 54.1237 55.1686 53.9713 54.9829 53.744C54.7971 53.5167 54.6975 53.2295 54.7021 52.9343C54.6738 52.6534 54.7433 52.3712 54.8986 52.137C55.0539 51.9027 55.2852 51.7311 55.5522 51.6519C55.8752 51.5547 56.2112 51.5097 56.5479 51.5184C60.1925 51.511 63.8372 51.511 67.4818 51.5184C67.6117 51.5184 67.7432 51.5184 67.8732 51.5184C68.7546 51.5915 69.3182 52.1175 69.326 52.8723C69.3338 53.6668 68.7561 54.2134 67.8152 54.223C65.8896 54.2405 63.9624 54.2262 62.0368 54.2277Z" fill="#00B5B3"/>
<path d="M36.6732 42.0159C35.9953 42.0159 35.3159 42.0572 34.638 42.0048C33.8552 41.9444 33.3527 41.3914 33.3542 40.678C33.3502 40.5048 33.3806 40.3326 33.4436 40.1716C33.5066 40.0106 33.6008 39.8641 33.7208 39.7408C33.8407 39.6176 33.9839 39.5202 34.1418 39.4543C34.2996 39.3884 34.4689 39.3555 34.6396 39.3575C35.9906 39.3066 37.3464 39.3066 38.699 39.3575C38.8697 39.357 39.0387 39.3911 39.1963 39.4576C39.3538 39.5242 39.4967 39.6219 39.6166 39.7452C39.7366 39.8684 39.8311 40.0146 39.8948 40.1753C39.9585 40.336 39.99 40.5079 39.9875 40.6811C39.9875 41.393 39.4912 41.9444 38.6959 42.0064C38.029 42.0588 37.3495 42.0175 36.6732 42.0159Z" fill="#00B5B3"/>
<path d="M27.272 42.0191C26.6223 42.0191 25.9695 42.0589 25.3229 42.008C24.5135 41.9444 24.0454 41.4264 24.0407 40.6907C24.036 39.955 24.4963 39.3924 25.301 39.3607C26.6505 39.305 28.0062 39.305 29.3573 39.3607C30.1714 39.3909 30.6364 39.9375 30.6411 40.6732C30.6458 41.4089 30.1839 41.9444 29.3792 42.008C28.681 42.0636 27.9702 42.0191 27.272 42.0191Z" fill="#00B5B3"/>
<path d="M27.3628 25.7521C26.7116 25.7521 26.0603 25.7711 25.4106 25.7521C24.5714 25.7187 24.0485 25.1991 24.0376 24.4379C24.0266 23.6768 24.5417 23.0984 25.3652 23.0713C26.6662 23.0284 27.9687 23.03 29.2697 23.0713C30.1401 23.0968 30.6709 23.6863 30.6411 24.4761C30.6129 25.234 30.0869 25.7298 29.2321 25.76C28.6137 25.7695 27.9875 25.7521 27.3628 25.7521Z" fill="#00B5B3"/>
<path d="M36.6967 25.7425C36.0203 25.7425 35.3425 25.7696 34.6614 25.7346C33.8912 25.6965 33.3667 25.1435 33.3526 24.4268C33.3433 24.2597 33.3667 24.0923 33.4212 23.9344C33.4758 23.7764 33.5606 23.631 33.6707 23.5064C33.7808 23.3818 33.9141 23.2804 34.0629 23.2082C34.2117 23.1361 34.3731 23.0944 34.5378 23.0857C35.9468 23.0221 37.3558 23.0221 38.7538 23.0761C38.9243 23.0845 39.0915 23.1269 39.2459 23.2009C39.4002 23.275 39.5386 23.3792 39.6532 23.5076C39.7678 23.636 39.8563 23.7861 39.9137 23.9493C39.971 24.1125 39.9961 24.2856 39.9875 24.4586C39.9562 25.1641 39.4145 25.7028 38.6458 25.7378C38.0008 25.7727 37.3479 25.7425 36.6967 25.7425Z" fill="#00B5B3"/>
<path d="M36.6701 31.1644C35.9953 31.1644 35.3206 31.193 34.6489 31.1564C34.3203 31.1569 34.004 31.0295 33.7652 30.8004C33.5264 30.5713 33.3832 30.2579 33.3652 29.9249C33.3166 29.2369 33.7378 28.579 34.4611 28.5408C35.9338 28.463 37.4095 28.463 38.8822 28.5408C39.5961 28.579 40.0391 29.2686 39.9781 29.9329C39.917 30.5971 39.4192 31.1183 38.6802 31.1564C38.018 31.193 37.3433 31.1659 36.6701 31.1644Z" fill="#00B5B3"/>
<path d="M27.3221 36.583C26.6458 36.583 25.9679 36.618 25.2869 36.5735C24.5244 36.5242 24.061 36.0237 24.0344 35.3165C24.0078 34.6094 24.4164 33.9976 25.1695 33.9611C26.6221 33.8909 28.0773 33.8946 29.5295 33.9722C30.2794 34.0119 30.6927 34.6317 30.6254 35.3515C30.5581 36.0713 30.1401 36.5226 29.4199 36.5671C28.6998 36.6116 28.0109 36.5766 27.3143 36.5766L27.3221 36.583Z" fill="#00B5B3"/>
<path d="M36.6638 36.583C35.9875 36.583 35.308 36.6163 34.6286 36.575C33.8818 36.5289 33.3949 36.0141 33.3573 35.3244C33.3198 34.6348 33.7597 33.9992 34.4986 33.9642C35.9499 33.8943 37.409 33.9038 38.8603 33.9642C39.582 33.996 39.9562 34.5426 39.9812 35.2625C40.0094 35.9442 39.4912 36.4733 38.7663 36.5718C38.6892 36.5848 38.6112 36.5923 38.5331 36.5941H36.6544L36.6638 36.583Z" fill="#00B5B3"/>
<path d="M27.3111 47.4648C26.6849 47.4648 26.0587 47.4981 25.4325 47.4568C24.5338 47.3964 24.0235 46.8609 24.036 46.0759C24.0485 45.291 24.573 44.7872 25.4904 44.7666C26.7136 44.7401 27.9368 44.7401 29.1601 44.7666C30.0884 44.7841 30.6113 45.2687 30.6364 46.0553C30.663 46.8689 30.1244 47.3917 29.1804 47.468C29.1288 47.468 29.0755 47.468 29.0239 47.468H27.3017L27.3111 47.4648Z" fill="#00B5B3"/>
<path d="M36.7374 44.7729C37.3887 44.7729 38.0415 44.7412 38.6896 44.7825C39.4724 44.8317 39.9844 45.3768 39.9937 46.0903C40.0069 46.4269 39.8878 46.7552 39.6626 47.0028C39.4375 47.2504 39.1247 47.3971 38.793 47.4108C37.3667 47.4711 35.9327 47.4711 34.5065 47.398C33.7691 47.3599 33.3276 46.7259 33.362 46.041C33.3965 45.3561 33.8834 44.8317 34.6301 44.7857C35.33 44.7443 36.0391 44.7761 36.7374 44.7761V44.7729Z" fill="#00B5B3"/>
<path d="M27.3581 31.1707C26.7069 31.1707 26.0556 31.1929 25.4059 31.1707C24.5871 31.1357 24.0893 30.6638 24.0439 29.9328C23.9953 29.1685 24.4697 28.5392 25.2963 28.5027C26.6724 28.4439 28.0564 28.4439 29.4325 28.5122C30.2153 28.5519 30.674 29.1621 30.6443 29.8979C30.6145 30.6336 30.1198 31.1294 29.3135 31.1691C28.6607 31.1929 28.0094 31.1691 27.3581 31.1707Z" fill="#00B5B3"/>
<path d="M67.3299 48.7837C65.9976 48.7996 65.337 48.3483 65.3448 47.4457C65.3526 46.5431 66.0211 46.0855 67.3487 46.0934C67.6593 46.0828 67.9701 46.1068 68.2755 46.1649C68.955 46.3238 69.3886 46.8959 69.3119 47.5426C69.2274 48.2529 68.8329 48.7011 68.1096 48.7789C67.85 48.7948 67.5897 48.7964 67.3299 48.7837Z" fill="#00B5B3"/>
<path d="M49.8975 54.2373C49.6642 54.2245 49.4278 54.2293 49.1961 54.1975C48.5198 54.1054 48.011 53.5873 48.0251 52.9263C48.0392 52.2653 48.3382 51.7075 49.0333 51.6137C49.6727 51.5256 50.321 51.5256 50.9605 51.6137C51.2742 51.6614 51.5571 51.8321 51.7482 52.0891C51.9394 52.3461 52.0236 52.6689 51.9828 52.9883C51.8795 53.6922 51.4865 54.1435 50.7554 54.2023C50.4705 54.2245 50.184 54.2023 49.8975 54.2023V54.2373Z" fill="#00B5B3"/>
<path d="M67.5225 59.6607C65.9914 59.6607 65.3213 59.184 65.3479 58.2766C65.3745 57.3693 66.0211 56.9418 67.2908 56.945C67.576 56.9384 67.8613 56.9548 68.144 56.9943C68.8751 57.1182 69.3401 57.6601 69.3229 58.337C69.3057 59.014 68.8313 59.5304 68.0877 59.6273C67.8309 59.6591 67.5695 59.6575 67.5225 59.6607Z" fill="#00B5B3"/>
<path d="M6.68336 32.5754C6.68336 29.6092 6.68336 26.6462 6.68336 23.6863C6.66756 23.3673 6.68699 23.0475 6.74128 22.7329C6.78827 22.4557 6.92909 22.2039 7.13944 22.0209C7.3498 21.8378 7.61649 21.735 7.89353 21.7302C8.53854 21.6841 9.02073 21.9654 9.21799 22.5946C9.31456 22.951 9.35731 23.3201 9.3448 23.6895C9.35107 29.5891 9.35107 35.4887 9.3448 41.3883C9.35277 41.731 9.31699 42.0734 9.23835 42.4069C9.17804 42.6965 9.01439 42.9532 8.77886 43.1277C8.54333 43.3023 8.25254 43.3823 7.96242 43.3523C7.29079 43.3253 6.8493 42.9392 6.72563 42.2511C6.68642 41.9627 6.67227 41.6713 6.68336 41.3803C6.68127 38.4512 6.68127 35.5162 6.68336 32.5754Z" fill="#00B5B3"/>
<path d="M6.71156 48.8155C6.71156 48.3133 6.67398 47.8064 6.72095 47.309C6.74203 46.9867 6.88324 46.6846 7.11587 46.4641C7.34851 46.2436 7.65511 46.1213 7.9734 46.122C8.63093 46.1411 9.20236 46.451 9.25246 47.1565C9.337 48.2597 9.337 49.368 9.25246 50.4712C9.19453 51.1752 8.57614 51.5597 7.89825 51.4882C7.22036 51.4167 6.80236 51.0115 6.72878 50.3219C6.67398 49.8245 6.71312 49.3176 6.71156 48.8155Z" fill="#00B5B3"/>
</svg>
