<svg width="80" height="80" viewBox="0 0 80 80" fill="none" xmlns="http://www.w3.org/2000/svg">
<g clip-path="url(#clip0)">
<path d="M77.1788 50.584C77.1788 54.4442 76.8844 58.3418 77.2805 62.1646C77.5643 64.9555 78.6349 67.6982 79.5717 70.3876C80.3694 72.6866 80.182 73.3388 77.8319 73.5955C70.4069 74.4616 62.9765 75.2422 55.5568 76.1083C54.5049 76.2334 53.4811 76.5315 52.5268 76.9905C44.147 81.0539 35.7994 81.0129 27.484 76.8675C26.6573 76.4518 25.764 76.184 24.8448 76.0762C17.2912 75.2262 9.72699 74.4723 2.17346 73.6169C-0.0909952 73.3549 -0.460374 72.6064 0.48181 70.5319C2.30513 66.442 3.21835 62.0057 3.15847 57.5292C3.15847 51.3326 2.89616 45.0878 3.53856 38.9447C4.818 26.8134 11.1403 17.6441 21.5899 11.4154C23.0621 10.5386 23.4636 9.74732 23.1103 8.14871C22.0932 3.53466 22.136 3.49724 26.6381 2.0911C36.0702 -0.927599 46.2475 -0.669437 55.5139 2.82358C57.1681 3.42239 57.7998 4.22971 57.3501 6.11169C56.3972 10.0735 56.5311 10.0628 59.8555 12.2655C71.0011 19.6437 76.4989 30.1229 76.8844 43.3769C76.9486 45.7775 76.8844 48.1888 76.8844 50.584H77.1788ZM21.0064 72.7133C19.2077 70.04 17.4465 67.7945 16.0707 65.3298C12.9604 59.7801 12.575 53.6797 12.7516 47.4724C12.848 43.4946 13.9722 41.9922 17.8266 41.3613C25.7281 40.0995 31.5846 35.9132 35.5514 29.0055C37.9015 24.9154 42.1092 24.9475 44.4647 29.059C46.1648 32.1684 48.5433 34.8563 51.424 36.9237C54.6851 39.2802 58.4824 40.7887 62.4732 41.3132C64.9411 41.6126 66.8576 42.8744 67.045 45.3391C67.4732 51.1187 67.8694 57.0159 65.364 62.448C63.758 65.8965 61.6167 69.0937 59.6199 72.6064L75.8351 70.7939C75.1927 68.0404 74.2291 65.5383 74.0846 62.9987C73.7366 56.4813 73.7045 49.9425 73.6617 43.4144C73.5921 33.3843 69.7912 24.9956 62.5375 18.1788C60.6371 16.3877 58.3565 14.9976 55.9368 13.1851C55.3747 15.8584 54.8662 17.997 54.5075 20.1356C54.2612 21.6647 53.5546 22.3116 51.9861 22.301C43.9668 22.2582 35.9511 22.2582 27.939 22.301C26.4882 22.301 25.7388 21.7663 25.4925 20.296C25.1606 18.1146 24.6253 15.9386 24.1381 13.7144C23.8776 13.7552 23.6214 13.8196 23.3726 13.9069C22.9015 14.1582 22.4358 14.4416 21.9914 14.7142C11.879 21.4615 6.58459 30.8875 6.27945 43.0508C6.1135 49.6431 6.18845 56.2514 5.83513 62.8329C5.69594 65.5062 4.70023 68.0779 4.03641 70.9436L21.0064 72.7133ZM64.0364 50.6108V49.6163C64.0364 45.0718 64.0364 45.0985 59.6413 44.088C51.7773 42.2809 45.9743 37.7096 41.9218 30.8126C40.6799 28.674 39.4326 28.4548 38.394 30.278C33.7955 38.2977 27.0503 43.1952 17.8266 44.6227C17.136 44.7296 16.0653 45.692 16.0493 46.3175C15.8887 51.3058 15.6799 56.2995 17.5321 61.122C23.4208 76.4666 42.0932 81.7703 54.8983 71.5852C61.6007 66.244 64.4058 59.0904 64.0364 50.6161V50.6108ZM51.5578 19.1091C52.3929 14.9923 53.2495 10.9663 53.9775 6.91366C53.9799 6.5956 53.9023 6.28203 53.7517 6.00176C53.6011 5.72149 53.3824 5.48352 53.1156 5.30971C44.6179 2.31551 35.3501 2.31551 26.8523 5.30971C26.5875 5.48432 26.3711 5.72288 26.2232 6.00327C26.0754 6.28367 26.0008 6.59681 26.0064 6.91366C26.7345 10.961 27.6124 14.9869 28.4208 19.0877L51.5578 19.1091Z" fill="#00B5B3"/>
<path d="M40.0964 60.8434C42.8962 60.8434 45.6959 60.8434 48.5011 60.8434C50.273 60.8434 50.8726 61.7042 50.6852 63.3616C50.4243 66.034 49.173 68.5126 47.1769 70.3112C45.1808 72.1098 42.5839 73.0988 39.8954 73.0841C37.207 73.0693 34.6211 72.052 32.6449 70.2316C30.6686 68.4112 29.4447 65.9191 29.2131 63.244C29.0418 61.5598 29.7484 60.7632 31.4936 60.7899C34.3576 60.8274 37.227 60.7899 40.0964 60.7899V60.8434ZM47.1092 64.1583H32.7302C33.1152 65.8428 34.0719 67.3424 35.438 68.4027C36.804 69.463 38.4953 70.0186 40.2248 69.9753C41.87 69.9544 43.4567 69.3626 44.7128 68.3012C45.9688 67.2399 46.8161 65.7752 47.1092 64.1583Z" fill="#00B5B3"/>
</g>
<defs>
<clipPath id="clip0">
<rect width="80" height="80" fill="white"/>
</clipPath>
</defs>
</svg>
