<svg width="80" height="80" viewBox="0 0 80 80" fill="none" xmlns="http://www.w3.org/2000/svg">
<path d="M0.0459424 49.1381H5.1477V20.6392H10.3033V15.4955H12.8682V20.5682H15.4524V10.3519H18.0367V20.5811H20.6209C20.6209 19.7417 20.6209 18.8916 20.6209 18.0415C20.6209 16.5652 20.257 14.9252 20.776 13.6533C21.295 12.3814 22.7142 11.5442 23.7307 10.5154C24.5081 9.73421 25.264 8.92715 26.0823 8.19111C26.3888 7.91969 26.7764 7.75702 27.185 7.7284C29.2524 7.6832 31.3219 7.70688 33.4798 7.70688V2.5955H36.064V7.64231H38.6741V0H41.2584V7.65522H43.819V5.1824H46.4032V7.70688C48.5568 7.70688 50.6177 7.72409 52.6786 7.69396C52.9152 7.68308 53.1512 7.72538 53.3693 7.81775C53.5873 7.91013 53.7818 8.05022 53.9385 8.2277C55.5364 9.8619 57.1523 11.4782 58.7861 13.0765C58.9707 13.2454 59.1149 13.4535 59.2081 13.6856C59.3013 13.9177 59.3411 14.1678 59.3245 14.4173C59.303 17.8866 59.3137 21.358 59.3137 24.8294V25.7441H61.8571V20.6758H64.4413V25.7269H67.0256V15.4955H69.5905V25.7785H74.7784V26.8137C74.7784 35.4783 74.7784 44.1422 74.7784 52.8053C74.7575 53.0392 74.7991 53.2744 74.899 53.4869C74.9989 53.6994 75.1535 53.8816 75.3469 54.0149C77.2825 55.484 78.7081 57.523 79.4226 59.8447C80.1372 62.1664 80.1047 64.6536 79.3298 66.9558C78.5549 69.2581 77.0767 71.2593 75.1034 72.6775C73.1301 74.0956 70.7612 74.8592 68.3306 74.8606C54.703 74.8779 41.0761 74.8779 27.4498 74.8606C26.8668 74.8339 26.2969 75.0389 25.8648 75.431C23.3585 77.6031 20.3735 79.1518 17.1537 79.9505C16.8433 80.0183 16.521 80.0095 16.2148 79.9247C11.6049 78.7195 7.52034 76.0311 4.59178 72.2748C1.66322 68.5184 0.0535937 63.903 0.0114856 59.1413C-0.014357 56.0465 0.0114856 52.9538 0.0114856 49.859C-0.0014357 49.6481 0.028714 49.4394 0.0459424 49.1381ZM28.9272 72.2867H67.7556C68.1325 72.2867 68.5094 72.2867 68.8841 72.2716C73.4496 72.0564 77.2463 68.2126 77.4057 63.6393C77.5887 58.401 73.5422 54.2193 68.2187 54.2107C56.9111 54.1935 45.6014 54.1935 34.2895 54.2107C34.0591 54.2107 33.8265 54.2387 33.4625 54.2645C33.9859 60.7425 33.1977 66.8761 28.9272 72.2867ZM23.2289 15.4955V46.7922C23.2289 48.0319 23.2073 48.1373 24.4413 48.3783C26.2245 48.7248 28.0335 48.9573 29.8424 49.1251C31.0549 49.2349 32.2846 49.1445 33.581 49.1445V51.5571H56.7295V15.4955H23.2289ZM2.63666 51.7314C2.61512 52.0112 2.58713 52.22 2.58713 52.4287C2.58713 54.7401 2.56344 57.0537 2.58713 59.3673C2.69696 67.5261 8.36294 74.9661 16.1932 77.2302C16.5485 77.3323 16.9243 77.339 17.2829 77.2495C24.4543 75.2631 30.1547 68.5484 30.7835 61.1084C31.0398 58.0631 30.902 54.9833 30.9407 51.9208C30.9407 51.8756 30.8891 51.8304 30.8137 51.7056C25.587 51.9638 20.8406 50.5391 16.7704 47.0332C14.8506 48.7034 12.6211 49.9802 10.2085 50.7909C7.7621 51.6023 5.22953 51.7809 2.63666 51.7314ZM59.4106 28.4085V51.5549C63.707 51.895 68.0011 51.0879 72.2135 52.2006V28.4085H59.4106ZM10.3873 43.8803V36.1562H18.0302V43.8136L17.1688 43.96L20.58 46.7233V23.2433H7.78149V48.6797C10.439 48.4063 14.8882 45.8668 16.1609 43.8803H10.3873ZM54.9291 12.8333C54.0677 11.9854 53.3656 11.2515 52.6119 10.5628C52.3876 10.3896 52.1114 10.2971 51.828 10.3002C43.9532 10.2873 36.0777 10.2873 28.2014 10.3002C27.971 10.3002 27.6717 10.3002 27.5252 10.4423C26.7284 11.1783 25.966 11.9488 25.0766 12.8376L54.9291 12.8333ZM15.4417 41.2418V38.7561H12.9672V41.2504L15.4417 41.2418Z" fill="#00B5B3"/>
<path d="M63.1255 68.727L59.8392 65.4385L61.7774 63.6974L63.1018 65.3783L70.0126 58.4376L71.673 60.1808L63.1255 68.727Z" fill="#00B5B3"/>
<path d="M39.8866 65.4901L46.8511 58.5021L48.3802 60.213L39.9598 68.6538L36.6649 65.3287L38.4631 63.6285L39.8866 65.4901Z" fill="#00B5B3"/>
<path d="M58.3877 58.416L59.9921 60.2131L51.5718 68.6538L48.2811 65.3223L50.0427 63.5769L51.4468 65.3804L58.3877 58.416Z" fill="#00B5B3"/>
<path d="M25.867 18.0781H33.5078V25.7269H25.867V18.0781ZM28.4362 20.6607V23.1486H30.9084V20.6607H28.4362Z" fill="#00B5B3"/>
<path d="M43.8556 18.1061V25.7269H36.1782V18.1061H43.8556ZM38.7624 23.1593H41.2476V20.6844H38.7624V23.1593Z" fill="#00B5B3"/>
<path d="M46.4872 25.7312V18.0781H54.1301V25.7269L46.4872 25.7312ZM51.5696 23.1701V20.6736H49.0995V23.1701H51.5696Z" fill="#00B5B3"/>
<path d="M46.5152 38.7388H54.1581V46.3876H46.5152V38.7388ZM49.0887 41.2999V43.8115H51.5566V41.3021L49.0887 41.2999Z" fill="#00B5B3"/>
<path d="M36.1889 38.7388H43.8297V46.3876H36.1889V38.7388ZM38.7452 43.8287H41.2433V41.3429H38.7452V43.8287Z" fill="#00B5B3"/>
<path d="M25.867 28.4085H33.5078V36.0573H25.867V28.4085ZM30.9149 33.5027V31.0191H28.4254V33.5027H30.9149Z" fill="#00B5B3"/>
<path d="M36.1782 36.0637V28.4085H43.8189V36.0573L36.1782 36.0637ZM38.7624 30.9911V33.4876H41.2433V30.9911H38.7624Z" fill="#00B5B3"/>
<path d="M46.4893 36.0659V28.4085H54.1301V36.0594L46.4893 36.0659ZM49.0736 30.9868V33.4941H51.5631V30.9911L49.0736 30.9868Z" fill="#00B5B3"/>
<path d="M25.8411 46.3962V38.7388H33.4862V46.3876L25.8411 46.3962ZM28.4254 41.3214V43.8158H30.902V41.3214H28.4254Z" fill="#00B5B3"/>
<path d="M5.16707 54.4173C6.71332 54.1462 8.18204 53.9568 9.61199 53.6253C12.0154 53.0722 14.2141 52.022 16.288 50.6919C16.4229 50.6151 16.5736 50.5702 16.7286 50.5609C16.8835 50.5516 17.0386 50.578 17.1817 50.6381C20.3545 52.7401 24.0169 53.987 27.8138 54.2581C27.9703 54.2769 28.1257 54.305 28.2789 54.342C29.1231 62.4578 27.0837 70.5951 17.5414 74.4324C17.0532 74.602 16.522 74.602 16.0339 74.4324C12.8499 73.277 10.0991 71.17 8.15522 68.3976C6.21139 65.6253 5.16883 62.322 5.16922 58.9369C5.16707 57.4411 5.16707 55.9367 5.16707 54.4173ZM7.77717 56.8751C7.28831 63.2369 10.7663 69.8483 15.4287 71.2601V54.385L7.77717 56.8751ZM18.0884 71.3354C22.8412 69.0563 26.5087 63.6802 25.7464 56.8708L18.0884 54.3657V71.3354Z" fill="#00B5B3"/>
<path d="M69.6292 48.9982H61.9971V41.343H69.6292V48.9982ZM64.5533 46.4005H67.0342V43.904H64.5533V46.4005Z" fill="#00B5B3"/>
<path d="M61.9497 38.6549V31.019H69.6206V38.6549H61.9497ZM64.5705 33.5737V36.0572H67.0536V33.5737H64.5705Z" fill="#00B5B3"/>
<path d="M18.0087 33.5048H10.3722V25.856H18.0087V33.5048ZM15.4244 30.9222V28.4365H12.9522V30.92L15.4244 30.9222Z" fill="#00B5B3"/>
</svg>
