<svg width="80" height="80" viewBox="0 0 80 80" fill="none" xmlns="http://www.w3.org/2000/svg">
<path d="M47.5519 0C49.2649 0.429684 50.8244 1.09773 51.5557 2.57967C51.9724 3.38339 52.2033 4.24881 52.2358 5.12798C52.2906 11.6893 52.2687 18.2522 52.2614 24.8135C52.2694 25.0989 52.225 25.3836 52.1298 25.6571C51.9104 26.2264 51.3619 26.5667 50.7294 26.3754C50.2705 26.2374 49.8811 25.8108 49.5904 25.4345C49.4331 25.2337 49.5337 24.8777 49.5337 24.5908C49.5337 18.1863 49.5337 11.7808 49.5337 5.37418C49.5337 3.21792 48.5099 2.33974 45.9998 2.33974H6.18668C3.78806 2.35228 2.74232 3.23988 2.74232 5.28009V74.7258C2.74232 76.7236 3.81183 77.6489 6.12635 77.6489C11.5001 77.6489 16.8738 77.6489 22.2476 77.6489C22.5803 77.6489 23.0118 77.5673 23.2257 77.7116C23.637 77.9876 24.1763 78.3875 24.1983 78.756C24.2202 79.1245 23.7412 79.5809 23.3536 79.8757C23.1343 80.0419 22.6589 79.987 22.2988 79.987C16.9238 79.9933 11.5495 79.9933 6.17571 79.987C2.29258 79.9902 0 78.0221 0 74.6944V5.8023C0 2.39933 1.02197 1.14948 4.73691 0H47.5519Z" fill="#00B5B3"/>
<path d="M52.3363 75.4675C52.0987 76.1183 51.9707 76.7472 51.6508 77.2929C50.594 79.0838 48.8243 79.9761 46.5062 79.9855C40.8899 80.009 35.2718 79.998 29.6555 79.9855C28.5933 79.9855 27.9607 79.526 27.9644 78.8078C27.968 78.0896 28.5842 77.6489 29.6646 77.6489C35.2206 77.6489 40.7765 77.6489 46.3325 77.6489C48.062 77.6489 49.2119 76.8648 49.4734 75.5648C49.5501 75.179 49.488 74.9736 48.9907 74.8089C44.2117 73.2282 39.4529 71.602 34.6739 70.0244C32.9317 69.4488 31.4435 68.7055 30.9389 67.015C30.8987 66.8786 30.6135 66.7547 30.4142 66.7014C30.1722 66.6693 29.9263 66.6645 29.6829 66.6872C22.7613 66.6872 15.8397 66.6872 8.91803 66.6872C6.56694 66.6872 5.49561 65.784 5.49561 63.7924C5.49561 46.5036 5.49561 29.2154 5.49561 11.9277C5.49561 10.2403 6.34755 9.51578 8.31837 9.51578H43.9375C45.9083 9.51578 46.731 10.2246 46.731 11.9433C46.731 22.5129 46.731 33.0836 46.731 43.6553V44.6103C47.6195 44.2716 48.4313 44.0097 49.1772 43.6458C49.3929 43.5408 49.5081 43.1425 49.5099 42.879C49.53 39.0511 49.5227 35.2231 49.5245 31.3967C49.5245 30.1343 49.9706 29.5557 50.9176 29.5823C51.8318 29.609 52.2559 30.1861 52.2577 31.3889V40.8168C52.3887 40.7917 52.5167 40.756 52.6398 40.7102C54.8337 39.5999 56.8868 39.7803 58.6857 41.314C63.1009 45.0776 67.4868 48.8632 71.8983 52.6284C73.6405 54.1166 74.6095 55.8762 74.5455 57.9995C74.487 59.8546 75.136 61.4025 76.8637 62.6053C77.6064 63.1437 78.2855 63.7435 78.8912 64.3961C80.4689 66.0239 80.3538 67.8634 78.6042 69.3642C75.0696 72.4064 71.529 75.4445 67.9822 78.4785C67.6398 78.7754 67.2733 79.051 66.8853 79.3033C65.516 80.1752 64.0552 80.2301 62.6383 79.4602C61.8303 79.0179 61.1355 78.4189 60.4079 77.8716C60.0203 77.5815 59.6766 77.2443 59.311 76.9385C58.0897 75.9223 56.7259 75.2543 54.9233 75.4503C54.0859 75.5428 53.2267 75.4675 52.3363 75.4675ZM40.2884 49.398C41.2482 48.6876 42.0526 47.8894 43.0655 47.4126C43.7638 47.0849 44.0161 46.834 44.0143 46.1691C43.9911 36.8477 43.9857 27.527 43.9978 18.2067V17.2658H8.31106V64.2801C8.36463 64.3003 8.42034 64.316 8.47743 64.3271C15.8829 64.3365 23.289 64.3423 30.6957 64.3444C30.8098 64.3451 30.9228 64.3247 31.0269 64.2847C31.1309 64.2446 31.2238 64.1858 31.2991 64.1123C32.6611 62.0376 34.8184 61.7914 37.2737 62.1238C38.9648 62.3528 40.6705 62.5127 42.6249 62.7307C42.2062 62.3449 41.974 62.1191 41.7272 61.9058C35.61 56.6587 29.4928 51.4115 23.3756 46.1644C23.053 45.8906 22.7478 45.6022 22.4615 45.3003C21.8256 44.6115 21.4763 43.7603 21.469 42.8818C21.4617 42.0033 21.7969 41.1479 22.4212 40.4514C24.2001 38.4677 27.3684 38.3579 29.5897 40.2444C32.9993 43.1393 36.376 46.0593 39.7674 48.9683C39.9959 49.1643 40.239 49.3556 40.2884 49.398ZM36.248 64.371C34.3101 64.3554 33.3942 65.0548 33.5313 66.1635C33.6355 67.0103 34.3266 67.3882 35.1621 67.6689C39.1714 69.0097 43.2062 70.3035 47.1735 71.729C49.9688 72.7342 52.8062 73.3128 55.8429 73.1247C56.5424 73.0791 57.2455 73.1537 57.911 73.344C58.5765 73.5344 59.1911 73.8368 59.7187 74.2334C61.0131 75.1743 62.2343 76.1889 63.5159 77.1439C64.4154 77.8151 64.8377 77.7979 65.7097 77.1063C66.2472 76.6845 66.75 76.2297 67.2637 75.7875C70.3571 73.1372 73.4486 70.4854 76.5383 67.832C77.4524 67.0479 77.4761 66.5885 76.6425 65.7526C76.2576 65.3474 75.8291 64.9741 75.3627 64.6376C72.8325 62.9126 71.635 60.6936 71.7922 57.8944C71.8708 56.5081 71.156 55.3242 70.0061 54.3393C65.6025 50.5673 61.2001 46.7937 56.799 43.0186C55.8227 42.1859 54.713 42.1482 53.8976 42.8618C53.0823 43.5753 53.1828 44.5099 54.1353 45.352C55.0494 46.1565 55.98 46.9375 56.8996 47.731C57.4352 48.1936 57.9874 48.6421 58.481 49.1345C58.9746 49.6269 58.9581 50.2103 58.417 50.6807C57.8758 51.1512 57.2268 51.1512 56.6052 50.756C56.3926 50.6116 56.1922 50.4544 56.0056 50.2856C54.5649 49.053 53.1371 47.811 51.6855 46.5878C50.861 45.8946 50.0163 45.7692 49.2174 46.1675C48.0473 46.7493 47.9377 47.9474 48.9962 48.882C50.5228 50.2228 52.0932 51.5307 53.6234 52.8684C54.3254 53.4815 54.3657 54.1794 53.7971 54.6686C53.2285 55.1579 52.4278 55.1297 51.7001 54.5291C50.6727 53.6791 49.6781 52.8041 48.6671 51.9369C47.8499 51.239 47.0455 50.5255 46.2045 49.8527C45.6304 49.3917 44.8717 49.1596 44.2026 49.5391C43.6998 49.8245 43.1313 50.3561 43.0856 50.8156C43.0344 51.3206 43.4092 51.9761 43.837 52.3838C45.3745 53.8218 47.0126 55.1814 48.6123 56.5709C49.6562 57.4788 49.8043 58.1391 49.0949 58.7005C48.3856 59.2619 47.7 59.1098 46.6725 58.23C40.4554 52.8814 34.2333 47.5381 28.0064 42.2C27.715 41.9355 27.3921 41.6979 27.043 41.4912C26.6809 41.293 26.2491 41.2104 25.8232 41.258C25.3973 41.3056 25.0046 41.4803 24.7138 41.7515C24.4305 42.0093 24.2555 42.3408 24.2164 42.6936C24.1773 43.0463 24.2764 43.4002 24.4981 43.6992C24.7434 43.9962 25.0227 44.2714 25.3318 44.5209C32.1144 50.342 38.8989 56.161 45.6853 61.978C46.6506 62.806 46.8645 63.5681 46.3892 64.3506C45.9138 65.1332 45.0344 65.3935 43.7145 65.2367C41.102 64.923 38.4858 64.6282 36.248 64.3695V64.371ZM14.8378 11.9026V14.7849H43.9412V11.9026H14.8378ZM12.0059 11.9182H8.29278V14.7896H12.0059V11.9182Z" fill="#00B5B3"/>
<path d="M26.1599 75.7592C25.2817 75.767 24.4206 75.5508 23.6858 75.1382C22.9511 74.7256 22.3757 74.135 22.0328 73.4415C21.6898 72.748 21.5947 71.9827 21.7596 71.2428C21.9244 70.5029 22.3417 69.8216 22.9586 69.2854C23.5755 68.7492 24.3641 68.3822 25.2245 68.231C26.0849 68.0799 26.9782 68.1513 27.7912 68.4362C28.6042 68.7212 29.3002 69.2069 29.7909 69.8316C30.2817 70.4563 30.545 71.192 30.5476 71.9454C30.5384 72.9458 30.0749 73.9037 29.2557 74.6158C28.4365 75.3278 27.326 75.738 26.1599 75.7592ZM26.1471 73.4069C26.4809 73.4029 26.8057 73.314 27.0806 73.1515C27.3555 72.989 27.568 72.7603 27.6913 72.4942C27.8146 72.2281 27.8431 71.9366 27.7732 71.6567C27.7033 71.3767 27.5382 71.1207 27.2988 70.9213C27.0593 70.7218 26.7562 70.5877 26.4279 70.536C26.0996 70.4843 25.7608 70.5173 25.4543 70.6307C25.1478 70.7442 24.8875 70.9331 24.7062 71.1736C24.5249 71.414 24.4309 71.6951 24.4359 71.9814C24.4575 72.3602 24.6457 72.7179 24.9626 72.9825C25.2794 73.247 25.7014 73.3986 26.1434 73.4069H26.1471Z" fill="#00B5B3"/>
<path d="M26.2349 4.66693C27.6298 4.66693 29.0247 4.65752 30.4197 4.66693C31.4453 4.67477 32.034 5.08721 32.0651 5.78348C32.0961 6.51112 31.4855 6.99569 30.4197 7.00197C27.5384 7.01765 24.6571 7.01765 21.7759 7.00197C20.7594 7.00197 20.189 6.53151 20.1871 5.82896C20.1853 5.12641 20.7575 4.67948 21.7704 4.67007C23.2622 4.65595 24.7485 4.66693 26.2349 4.66693Z" fill="#00B5B3"/>
<path d="M26.2441 19.2887C32.0285 19.4173 36.4108 23.366 36.2682 28.3074C36.1292 33.0951 31.4453 36.8305 25.7303 36.7129C20.2932 36.6 15.836 32.5603 15.9695 27.8667C16.1066 23.0351 20.7356 19.1711 26.2441 19.2887ZM18.7063 28.0094C18.7012 29.6968 19.4778 31.3167 20.8652 32.513C22.2525 33.7092 24.1371 34.3837 26.1042 34.388C28.0713 34.3924 29.9599 33.7263 31.3545 32.5362C32.7491 31.3462 33.5354 29.7297 33.5405 28.0423C33.5661 24.5296 30.1674 21.6128 26.096 21.6379C24.134 21.6531 22.2581 22.331 20.8749 23.5245C19.4916 24.7181 18.7125 26.3312 18.7063 28.0141V28.0094Z" fill="#00B5B3"/>
<path d="M25.1234 28.403C26.3794 27.3053 27.4617 26.3283 28.6062 25.4031C28.9316 25.1412 29.4545 24.8903 29.8585 24.9185C30.2625 24.9468 30.8055 25.2745 30.9408 25.5834C31.0907 25.9222 31.0176 26.5244 30.7434 26.7784C29.2424 28.1678 27.6701 29.5023 26.0796 30.8196C25.5 31.2979 24.7815 31.2681 24.1947 30.7992C23.2806 30.0747 22.4067 29.3204 21.5584 28.5442C20.9587 27.9937 20.988 27.3429 21.5419 26.8741C22.0959 26.4052 22.8564 26.4162 23.4908 26.9274C24.0375 27.368 24.5274 27.8605 25.1234 28.403Z" fill="#00B5B3"/>
</svg>
