<svg width="80" height="80" viewBox="0 0 80 80" fill="none" xmlns="http://www.w3.org/2000/svg">
<path d="M38.1324 0H41.8902C42.0886 0.0563432 42.2901 0.10164 42.4935 0.135682C50.4265 1.0444 56.6393 4.80174 61.1319 11.4077C61.2405 11.5684 61.3699 11.7166 61.5035 11.892C62.0296 11.2136 62.4534 10.5038 63.0317 9.96112C63.8667 9.17626 64.0609 8.27867 64.0379 7.1786C63.9878 4.79061 64.0588 2.40052 64.0797 0.0104371H66.5848C66.6352 0.286524 66.6694 0.565322 66.6871 0.845401C66.6871 3.50059 66.6746 6.15577 66.7018 8.81096C66.7143 9.15992 66.6531 9.50759 66.5221 9.8313C66.3912 10.155 66.1935 10.4475 65.9418 10.6896C63.9383 12.7467 62.3843 15.1976 61.3783 17.887C60.2823 20.753 59.9315 23.7318 60.0004 26.7731C60.0234 27.8356 60.0568 28.9211 59.8794 29.9606C59.4243 32.597 58.8502 35.2146 58.3282 37.8406C58.1946 38.5044 58.0652 39.1682 57.9504 39.834C57.7124 41.2097 58.4138 42.3744 59.6435 42.6646C60.9086 42.9631 62.0672 42.2909 62.491 40.9675C63.8118 36.8317 65.1256 32.6951 66.4324 28.5579C66.5306 28.2489 66.6412 27.9442 66.7623 27.6123L69.2675 28.4347C67.9335 32.6095 66.5347 36.6424 65.3761 40.7504C64.4241 44.1195 63.2885 47.3633 61.4597 50.3776C59.9984 52.799 58.7082 55.3331 57.3617 57.8275C56.6623 59.1238 57.1216 60.5203 58.3721 61.0254C59.4159 61.4429 60.3595 61.086 61.0756 59.965C64.2321 55.0346 67.3823 50.1013 70.5263 45.1653C70.7018 44.8785 70.842 44.5715 70.9438 44.251C72.948 38.2622 74.9563 32.2734 76.9249 26.2721C77.1755 25.5092 77.3065 24.7122 77.3132 23.9092C77.3466 15.9416 77.3404 7.97599 77.3445 0.00834964H80V25.3119C79.8372 25.8818 79.691 26.4579 79.5052 27.0215C77.6083 32.716 75.7064 38.4097 73.7997 44.1028C73.5617 44.8146 73.3822 45.5828 72.9939 46.2048C69.7205 51.3983 66.4192 56.5744 63.0901 61.7331C62.732 62.2958 62.2544 62.7728 61.6912 63.1303C61.128 63.4878 60.493 63.717 59.8313 63.8017C58.4389 64.0209 57.2281 63.5804 56.1007 62.783C55.8356 63.0607 55.6081 63.307 55.3722 63.547C54.6895 64.2442 53.7229 64.8287 53.3972 65.6637C53.0507 66.5446 53.3304 67.6634 53.3117 68.68C53.2511 71.7652 53.4995 74.8128 54.4411 77.7748C54.9296 79.3091 54.416 80 52.8169 80H34.6273C32.0512 80 29.4729 80 26.903 80C25.7736 80 25.1056 79.2444 25.4417 78.2528C26.8133 74.2241 26.7402 70.0598 26.6943 65.8933C26.7013 65.6664 26.6273 65.4444 26.4855 65.2671C25.6296 64.4321 24.7444 63.6431 23.8676 62.8373C20.8155 64.6534 18.4085 64.0898 16.4983 61.1006C13.4141 56.2703 10.3335 51.4442 7.2563 46.6223C6.97538 46.1865 6.74826 45.7183 6.57991 45.2279C4.54237 39.1744 2.50275 33.1084 0.525758 27.0299C0.207217 26.0428 0.0403932 25.0131 0.0309884 23.976C-0.0107644 15.9833 0.00176144 7.99269 0.00176144 0H2.65932C2.65932 7.99269 2.65932 15.9875 2.68855 23.9802C2.69457 24.7319 2.81639 25.4782 3.04971 26.1928C4.46513 30.543 6.01416 34.8514 7.34607 39.2266C8.45277 42.9384 10.1304 46.4553 12.3188 49.6511C14.6403 53.039 16.7613 56.5688 18.9784 60.0277C19.6569 61.0818 20.6485 61.4387 21.6422 61.0275C22.8948 60.5098 23.3541 59.1134 22.6547 57.8275C20.5921 54.0347 18.5087 50.2544 16.4419 46.4637C16.2433 46.0984 16.0811 45.7146 15.9576 45.3177C15.0286 42.2617 14.1288 39.1932 13.1894 36.1331C12.4044 33.5802 11.5798 31.0398 10.751 28.4264L13.2562 27.6227C13.3773 27.9671 13.4858 28.2489 13.5798 28.5453C14.8977 32.6868 16.2171 36.8261 17.5379 40.9633C17.9701 42.3139 19.1684 42.9902 20.4606 42.65C21.6172 42.3452 22.3207 41.1888 22.0973 39.9155C21.9157 38.8905 21.6798 37.8761 21.5023 36.8532C20.876 33.2775 19.8656 29.779 19.9909 26.0718C20.1996 20.0621 18.112 14.8624 13.9555 10.4955C13.6862 10.2116 13.3981 9.78995 13.394 9.43092C13.3418 6.3332 13.3626 3.23549 13.3752 0.139856C13.3752 0.0939335 13.419 0.045923 13.442 0H15.9471C15.9701 0.308937 16.0098 0.626223 16.0098 0.928898C16.0098 3.32107 16.0098 5.71324 16.0098 8.10333C16.0098 8.38095 15.9972 8.72955 16.1455 8.92368C16.9116 9.91729 17.7467 10.8733 18.5588 11.869C18.7132 11.6477 18.8469 11.4515 18.9763 11.2658C22.4689 6.12237 27.1932 2.65519 33.1722 0.964383C34.7901 0.507241 36.4769 0.315199 38.1324 0ZM57.3658 23.9614C57.4159 23.6274 57.4473 23.3769 57.4911 23.1264C57.7333 21.7717 57.9086 20.4003 58.2447 19.0706C58.343 18.771 58.3615 18.451 58.2986 18.1421C58.2356 17.8332 58.0933 17.546 57.8857 17.3088C49.0737 5.93659 31.8006 5.63601 22.6046 16.6993C21.8322 17.6303 21.3332 18.4965 21.9554 19.6759C22.0026 19.7968 22.0308 19.9242 22.0389 20.0538C22.2476 21.3292 22.4564 22.6025 22.6923 23.9405C26.1791 22.5307 30.0319 22.3027 33.6607 23.2913C33.4332 24.1785 33.2307 24.9738 33.0136 25.8171C32.7213 25.7649 32.4958 25.7273 32.2724 25.6814C29.1744 25.0552 26.1661 25.3015 23.2643 26.6124C22.8301 26.8065 22.6025 27.0466 22.6672 27.5455C22.8447 28.9336 22.9846 30.3259 23.1891 31.7078C23.2339 31.8247 23.3069 31.9288 23.4016 32.0107C23.4963 32.0927 23.6098 32.1499 23.7319 32.1774C25.2893 32.2797 26.8509 32.3966 28.4082 32.3716C29.9656 32.3465 31.5063 32.1628 33.12 32.0355C33.262 32.8475 33.4039 33.6553 33.5605 34.5404C30.3289 35.152 27.1285 35.2 23.8363 34.9203C24.1536 36.5777 24.4793 38.0994 24.734 39.6357C24.8438 40.2918 24.8196 40.9633 24.6628 41.6098C24.506 42.2562 24.2199 42.8642 23.8217 43.3971C23.4236 43.93 22.9216 44.3768 22.3461 44.7104C21.7706 45.0441 21.1335 45.2578 20.4731 45.3386C19.944 45.3701 19.4135 45.3701 18.8844 45.3386C19.0702 45.6892 19.2018 45.9397 19.3375 46.1902C21.1975 49.5885 23.0451 52.9952 24.924 56.3851C25.5294 57.4748 25.83 58.6124 25.5858 59.8314C25.5322 60.039 25.5353 60.2572 25.5948 60.4632C25.6543 60.6692 25.768 60.8554 25.9239 61.0025C30.2955 65.8515 35.7484 67.9828 42.2075 67.2898C47.0091 66.7721 51.0069 64.5761 54.1592 60.8877C54.3555 60.668 54.4581 60.3804 54.4452 60.0861C54.1985 58.8234 54.4212 57.5141 55.0715 56.4039C56.9629 52.9931 58.8293 49.5635 60.6956 46.1422C60.8292 45.9001 60.9545 45.6538 61.0359 45.4993C60.1382 45.349 59.2322 45.3302 58.4222 45.0421C55.9609 44.1633 54.7939 41.744 55.3701 38.9511C55.6352 37.6652 55.8836 36.3752 56.155 35.01C53.2824 35.1478 50.5476 35.0539 47.7732 34.5341C47.9297 33.6449 48.0738 32.8371 48.2241 31.9854C48.5456 32.0104 48.8003 32.0376 49.0591 32.048L56.0694 32.3256C56.4222 32.3382 56.75 32.3256 56.8043 31.8476C56.9755 30.3551 57.1842 28.8668 57.3095 27.3701C57.3283 27.1447 57.0339 26.7794 56.7959 26.6625C54.6776 25.6346 52.3222 25.1941 49.9756 25.3871C48.9965 25.4622 48.0237 25.6271 46.9778 25.7607L46.3515 23.2767C49.9996 22.2998 53.8669 22.5402 57.3658 23.9614ZM28.7381 77.3072H51.272C51.0034 73.998 50.7348 70.702 50.4662 67.4192C43.5227 71.0638 36.479 71.0513 29.5502 67.4192C29.2816 70.7103 29.0109 74.0063 28.7381 77.3072ZM46.1385 3.44005L41.4079 2.6865V5.90737C42.3766 6.03053 43.2743 6.1683 44.1762 6.24344C44.3009 6.25073 44.4256 6.22995 44.5413 6.18262C44.6569 6.1353 44.7604 6.06264 44.8442 5.96999C45.2868 5.21853 45.6542 4.41487 46.1385 3.44005ZM38.623 2.68023L33.8841 3.47136C34.3664 4.44201 34.7442 5.23314 35.1617 6.00548C35.213 6.08337 35.2818 6.14814 35.3627 6.19455C35.4435 6.24096 35.5342 6.26772 35.6273 6.27267C36.6252 6.17038 37.6168 6.02635 38.623 5.89485V2.68023ZM52.8607 6.58787L48.6792 4.33555C48.1969 5.3062 47.7878 6.12655 47.3786 6.94481L50.9276 8.34129L52.8607 6.58787ZM27.164 6.58787L29.0241 8.36008L32.6315 6.93646L31.3163 4.32929L27.164 6.58787ZM57.7374 11.0153L54.8273 8.44775L53.5162 9.74403L56.7041 12.1299L57.7374 11.0153ZM25.1453 8.38513L22.2226 10.9819L23.2977 12.1299C24.3895 11.3138 25.4208 10.5435 26.4834 9.74612L25.1453 8.38513ZM20.8385 13.422C20.0431 14.4365 20.0431 14.4887 20.446 15.1379L21.423 14.042C21.3311 13.9272 21.2748 13.8458 21.2142 13.7748C21.1015 13.6663 20.9867 13.5682 20.8385 13.422ZM59.5954 15.1692C59.9629 14.4658 59.9315 14.353 59.1529 13.4325L58.585 14.0337L59.5954 15.1692Z" fill="#00B5B3"/>
<path d="M41.2869 41.3307H38.7462V26.7376H41.2869V41.3307Z" fill="#00B5B3"/>
<path d="M46.1824 49.2236C42.0593 47.6454 37.9738 47.6245 33.8382 49.2236L32.8486 46.7581C37.6502 44.896 42.3557 44.9043 47.1636 46.7581L46.1824 49.2236Z" fill="#00B5B3"/>
</svg>
