<svg width="81" height="80" viewBox="0 0 81 80" fill="none" xmlns="http://www.w3.org/2000/svg">
<path d="M60.2504 6.91895C60.2504 5.59503 60.2324 4.33715 60.2594 3.08052C60.2696 2.62634 60.1386 2.5142 59.7413 2.5198C57.8136 2.54161 55.8849 2.52977 53.9567 2.52977C53.7664 2.52977 53.5751 2.54036 53.386 2.52479C52.7087 2.46996 52.2497 1.96407 52.2464 1.27189C52.243 0.57972 52.6979 0.0214942 53.3753 0.015887C56.0414 -0.00529567 58.7076 -0.00529567 61.3737 0.015887C62.1075 0.0214942 62.5263 0.541716 62.5337 1.39837C62.5478 2.97461 62.5382 4.55085 62.5382 6.12709V7.12018C63.0806 6.49716 63.4729 6.01868 63.8929 5.56949C64.4906 4.92653 65.1691 4.89226 65.6523 5.4536C66.1152 5.99002 66.0796 6.70961 65.5191 7.34011C64.4692 8.52135 63.4089 9.6918 62.3384 10.8514C61.6875 11.5567 61.1157 11.5629 60.4756 10.8708C59.4047 9.71194 58.3439 8.54191 57.2932 7.36067C56.705 6.70214 56.6723 5.957 57.1713 5.41934C57.6703 4.88167 58.32 4.94896 58.9335 5.60001C59.3286 6.01868 59.713 6.44732 60.1042 6.87035C60.1144 6.88281 60.1398 6.88281 60.2504 6.91895Z" fill="#00B5B3"/>
<path d="M33.1998 76.208C31.6531 76.208 30.0919 76.208 28.5311 76.208C27.3994 76.208 27.0398 75.8106 27.0387 74.5602C27.0364 71.8534 27.0364 69.1463 27.0387 66.4391C27.0387 65.4049 27.4174 64.8691 28.1478 64.8473C28.9104 64.8236 29.3236 65.3775 29.3253 66.4428C29.3253 68.6234 29.3417 70.804 29.3152 72.9845C29.3089 73.5415 29.4676 73.7091 29.9643 73.6923C31.0475 73.6562 32.1318 73.6811 33.3059 73.5054C32.8837 73.0593 32.449 72.6263 32.0426 72.1628C31.5041 71.5491 31.4737 70.7921 31.9376 70.2707C32.4016 69.7492 33.1055 69.7573 33.6519 70.3479C34.7582 71.5429 35.8525 72.7509 36.9348 73.972C37.5049 74.6175 37.5032 75.2748 36.9348 75.9202C35.8537 77.1434 34.7592 78.3517 33.6513 79.5449C33.1049 80.1349 32.4005 80.143 31.9371 79.6166C31.4736 79.0901 31.5137 78.3469 32.0443 77.722C32.4338 77.2628 32.8346 76.813 33.2252 76.357C33.2336 76.3495 33.2178 76.3102 33.1998 76.208Z" fill="#00B5B3"/>
<path d="M36.9387 32.9406C36.9348 34.7966 36.9071 36.6463 36.4454 38.4525C35.8623 40.7308 34.9039 42.689 33.123 44.0372C32.309 44.6527 31.9376 45.6004 31.9376 46.7249C31.9376 48.8195 31.9376 50.9141 31.9376 53.0087C31.9376 53.6261 31.9444 54.2429 31.8405 54.8522C31.2473 57.2515 29.4308 58.7349 27.4874 58.4084C25.4141 58.0601 23.9652 56.1063 23.9567 53.6273C23.9488 51.481 23.9567 49.3347 23.9533 47.1878C23.9494 45.7324 23.119 44.702 21.9636 44.6988C20.8081 44.6957 19.9694 45.7187 19.9654 47.1741C19.9598 49.321 19.9682 51.4673 19.9654 53.6136C19.9586 56.3855 18.2568 58.4389 15.9792 58.4352C13.7513 58.4315 11.9941 56.3038 11.9856 53.5869C11.9788 51.2973 11.9856 49.0077 11.9828 46.7181C11.9828 45.5916 11.604 44.6453 10.789 44.0279C8.70046 42.4429 7.71547 40.0835 7.25882 37.389C6.59784 33.4895 7.03755 29.8018 9.0984 26.4942C8.96745 26.2743 8.78625 26.3796 8.64006 26.3783C7.39373 26.3671 6.14627 26.3933 4.9005 26.3646C2.69516 26.3129 0.986533 24.2731 1.00008 21.7443C1.01363 19.2659 2.73862 17.2368 4.918 17.2199C8.59547 17.1919 12.2735 17.2112 15.951 17.2106H16.6006C12.4502 12.361 13.8585 6.30152 16.6328 3.49108C19.7374 0.347945 24.4642 0.418969 27.4586 3.67425C30.3221 6.78935 31.2128 12.7255 27.3164 17.1938H35.6834C35.9267 17.0324 36.1914 17.0106 36.4663 17.0119C37.2757 17.0119 38.0852 17.0013 38.8935 17.015C40.6354 17.0455 41.9455 17.9657 42.6799 19.7488C43.4255 21.5555 43.2285 23.3411 42.0849 24.8937C41.2986 25.9603 40.2617 26.536 39.0329 26.5671C37.913 26.5964 36.792 26.5839 35.6715 26.5671C35.2318 26.5609 35.1477 26.7123 35.3893 27.1359C35.6656 27.6144 35.903 28.119 36.0988 28.6436C36.2016 28.9234 36.3461 29.2043 36.1953 29.5271C36.6548 30.6043 36.7288 31.7918 36.9387 32.9406Z" stroke="#00B5B3" stroke-width="2" stroke-miterlimit="10"/>
<path d="M70.0754 55.178V68.6907C70.0754 68.6907 69.3416 71.7348 67.2198 72.207C65.098 72.6793 64.1345 71.9117 63.3854 71.1198C62.6364 70.328 62.1374 69.2122 62.1329 67.7555C62.1284 66.2989 62.099 56.5175 62.099 56.5175C62.099 56.5175 61.8168 54.7425 60.3622 54.6217C58.9075 54.5008 58.3865 55.7855 58.3865 55.7855L58.119 68.4951C58.119 68.4951 58.04 71.7453 54.6758 72.3522C51.3116 72.959 50.2476 68.4957 50.2476 68.4957V48.2313L50.2019 42.5887V41.6585C50.2019 41.6585 50.2775 41.2535 49.2423 41.2691C48.2071 41.2847 42.6838 41.2691 42.6838 41.2691C42.6838 41.2691 39.4161 40.8722 39.2863 36.8824C39.1565 32.8926 43.1247 32.4066 43.1247 32.4066L52.182 32.3873C52.182 32.3873 54.8033 36.731 60.0952 36.8282C65.387 36.9254 68.0891 32.4048 68.0891 32.4048H71.5887L75.7302 32.388L77.5709 32.4048C77.5709 32.4048 81.0039 32.9811 81 36.8126C80.996 40.6442 77.366 41.3302 77.366 41.3302L70.8549 41.2679C70.8549 41.2679 70.0291 41.0186 70.0545 42.4472C70.0799 43.8758 70.0754 55.178 70.0754 55.178Z" fill="#00B5B3"/>
<path d="M60.1393 34.6327C64.5286 34.6327 68.0869 30.6526 68.0869 25.7428C68.0869 20.8331 64.5286 16.853 60.1393 16.853C55.7499 16.853 52.1917 20.8331 52.1917 25.7428C52.1917 30.6526 55.7499 34.6327 60.1393 34.6327Z" fill="#00B5B3"/>
</svg>
