<svg width="383" height="111" viewBox="0 0 383 111" fill="none" xmlns="http://www.w3.org/2000/svg">
<g clip-path="url(#clip0)">
<path d="M247.502 30.7563C239.796 36.496 232.089 40.4871 232.089 40.4871L233.58 43.9806C234.657 42.8996 237.458 41.2352 238.056 41.985C239.647 43.9806 227.615 73.4233 225.127 80.4103C226.919 79.2112 232.007 78.0819 234.326 77.6649C248.248 34.2499 259.187 39.2396 263.91 39.9877C264.767 37.5854 265.595 35.1733 266.396 32.7519C258.69 29.2601 250.983 38.7403 246.509 43.2325C248.1 38.4414 247.833 32.9183 247.502 30.7563Z" fill="#00B5B3"/>
<path fill-rule="evenodd" clip-rule="evenodd" d="M193.057 39.739C194.963 37.1618 197.234 32.104 191.069 32.5031C183.362 33.0025 166.099 36.6052 152.536 50.2178C135.382 67.4349 134.884 97.6275 167.949 65.4393L167.672 66.0962C166.133 69.7329 164.219 74.2537 164.219 79.6623C170.931 79.6623 179.384 74.1714 181.871 72.1758L180.13 69.1816C178.39 70.4291 174.859 72.7253 174.661 71.9271C174.412 70.9284 175.904 64.6912 181.125 55.2093C179.733 55.408 176.567 56.4567 175.158 56.9561C177.646 53.0473 181.422 44.1793 176.651 39.9895C183.113 38.4915 186.097 38.4915 193.057 39.739ZM152.783 72.6752C157.81 70.7584 172.175 57.7042 174.661 40.4871C169.191 41.7345 158.381 48.9274 153.477 56.7055C147.643 65.9637 146.029 75.2524 152.783 72.6752ZM304.793 39.739C306.699 37.1618 308.97 32.104 302.804 32.5031C295.098 33.0025 277.834 36.6052 264.272 50.2178C247.117 67.4349 246.62 97.6275 279.685 65.4393L279.407 66.0962C277.868 69.7329 275.955 74.2537 275.955 79.6623C282.668 79.6623 291.121 74.1714 293.607 72.1758L291.866 69.1816C290.126 70.4291 286.595 72.7253 286.396 71.9271C286.148 70.9284 287.64 64.6912 292.861 55.2093C291.468 55.408 288.302 56.4567 286.894 56.9561C289.38 53.0473 293.16 44.1793 288.386 39.9895C294.849 38.4915 297.833 38.4915 304.793 39.739ZM264.519 72.6752C269.546 70.7584 283.91 57.7042 286.396 40.4871C280.927 41.7345 270.117 48.9274 265.215 56.7055C259.379 65.9637 257.764 75.2524 264.519 72.6752Z" fill="#00B5B3"/>
<path fill-rule="evenodd" clip-rule="evenodd" d="M234.686 39.7379C236.592 37.1607 238.863 32.103 232.697 32.5021C224.991 33.0014 207.727 36.6041 194.163 50.2167C177.874 66.5676 176.606 94.6179 204.835 69.8374C204.885 69.7801 204.937 69.7282 204.991 69.6799C205.25 69.4419 205.551 69.1734 205.884 68.8745C206.415 68.4003 207.029 67.8508 207.702 67.2316C208.333 66.6395 208.958 66.0417 209.578 65.4383L209.569 65.458C209.869 65.1627 210.175 64.8584 210.487 64.5416C197.726 116.068 177.495 105.977 171.677 100.869C169.69 107.856 172.423 112.295 181.622 110.6C208.72 105.61 219.659 65.1877 220.652 58.2024C218.578 58.3904 216.683 58.7751 215.131 59.1868C216.371 57.5499 217.467 55.8085 218.406 53.9823C220.47 49.5796 222.066 43.3138 218.279 39.9867C224.742 38.4905 227.725 38.4905 234.686 39.7361V39.7379ZM194.411 72.6741C199.439 70.7573 213.803 57.7031 216.289 40.486C210.82 41.7334 200.01 48.9263 195.108 56.7044C189.271 65.9627 187.657 75.2513 194.411 72.6741ZM88.6445 15.285C85.4605 25.0658 86.3232 35.8292 87.1518 39.9867C79.941 49.4686 69.2511 62.9434 51.1033 69.9287C32.9555 76.9157 11.5756 68.4325 6.60192 53.9608C1.28646 38.4905 10.8292 23.0201 27.2374 23.5177C43.6455 24.0188 58.7275 36.8779 65.7701 44.4789L81.1849 35.9956L78.9478 32.7508C70.4949 37.243 69.4998 36.6345 59.5561 28.2586C37.9274 10.0465 12.0713 17.5328 3.12271 33.252C-5.82589 48.9693 3.86723 83.1529 39.9158 79.4106C58.3409 77.4974 75.8569 61.5689 88.1827 44.7867L88.1469 44.9782C94.9067 63.7416 92.2883 74.4191 90.1335 77.4151L93.117 79.4106C100.161 70.6768 116.387 50.6677 124.938 40.486C121.559 54.0592 120.05 72.9229 119.719 80.658L137.617 73.1734L135.132 69.6799C125.531 77.8876 129.557 58.6624 132.26 45.7585C132.582 44.2247 132.883 42.7822 133.142 41.4847C139.258 10.7946 162.975 3.55693 156.761 17.7798L160.738 18.5279C162.336 12.9384 163.994 7.36612 165.712 1.81195C154.275 0.0651837 140.351 14.5369 137.37 18.5279C134.386 22.5226 104.304 58.9523 100.328 63.4445C100.328 59.8508 96.3492 43.482 94.3608 35.7468C94.3459 35.7325 94.331 35.7181 94.3161 35.7039C102.32 22.7714 106.731 10.7552 105.548 5.80481C102.565 -6.66953 92.6212 3.06117 88.6427 15.2867L88.6445 15.285ZM93.3657 28.7598C92.7035 25.0157 92.0736 16.0349 94.8584 10.0447C98.3376 2.56005 103.311 12.042 93.3657 28.7598Z" fill="#00B5B3"/>
<path d="M351.172 9.54818L340.979 28.7608L337.747 25.7666C342.968 14.7867 335.805 15.5366 332.278 18.2802C322.332 26.0154 328.797 36.7448 331.034 41.7345C333.942 48.2222 335.886 60.0219 323.078 72.4264C308.907 86.1482 294.241 80.1598 302.196 61.697C304.184 67.1861 311.891 78.413 321.836 67.1861C328.947 57.5574 320.102 49.8562 318.439 38.9909C317.604 33.5215 319.102 26.266 324.322 19.5277C333.217 8.05019 345.287 8.13251 351.172 9.54818ZM383 9.54818L372.808 28.7608L369.575 25.7666C374.796 14.7867 367.635 15.5366 364.106 18.2802C354.162 26.0154 360.625 36.7448 362.862 41.7345C365.772 48.2222 367.716 60.0219 354.907 72.4264C340.738 86.1482 326.069 80.1598 334.024 61.697C336.013 67.1861 343.721 78.413 353.665 67.1861C360.775 57.5574 351.932 49.8562 350.268 38.9909C349.432 33.5215 350.93 26.266 356.151 19.5277C365.046 8.05019 377.117 8.13251 383 9.54818ZM213.898 90.7388C256.461 85.3697 282.158 86.0498 359.624 100.122C304.072 82.9768 258.087 81.1763 217.988 84.6717C216.649 86.7104 215.286 88.733 213.898 90.7388ZM199.437 86.6815C182.7 88.8292 166.975 91.6838 151.956 94.4113C149.227 94.9071 146.519 95.3975 143.834 95.8789C97.5934 104.183 43.8947 101.37 1.13289 95.6301C42.4038 104.615 90.0139 107.652 146.569 100.122C160.885 98.2163 173.222 96.4391 184.2 94.857C188.042 94.3039 191.717 93.776 195.253 93.2731C196.742 91.137 198.138 88.9378 199.437 86.6815Z" fill="#00B5B3"/>
</g>
<defs>
<clipPath id="clip0">
<rect width="383" height="110.963" fill="white"/>
</clipPath>
</defs>
</svg>
